<svg width="180" height="192" viewBox="0 0 180 192" fill="none" xmlns="http://www.w3.org/2000/svg">
<g clip-path="url(#clip0)">
<path d="M148.702 185.794C144.566 185.794 140.618 185.874 137.005 186.018C137.01 185.989 137.014 185.959 137.015 185.929C137.015 184.669 132.708 183.519 125.606 182.641C146.523 181.5 160.543 179.406 160.543 177.01C160.543 173.395 128.62 170.465 89.2411 170.465C49.8621 170.465 17.9391 173.395 17.9391 177.01C17.9391 177.684 19.0505 178.335 21.1123 178.946C8.82773 179.365 0 180.521 0 181.881C0 183.595 14.0128 184.984 31.2985 184.984C36.8319 184.984 42.0287 184.842 46.5391 184.592C45.4501 185.018 44.8657 185.466 44.8657 185.929C44.8657 188.686 65.494 190.921 90.9403 190.921C101.513 190.921 111.252 190.535 119.027 189.886C123.191 191.115 134.903 192 148.702 192C165.987 192 180 190.611 180 188.897C180 187.183 165.987 185.794 148.702 185.794Z" fill="#3F3D56"/>
<path d="M25.8016 167.865C27.6033 174.554 33.7745 178.697 33.7745 178.697C33.7745 178.697 37.0246 171.995 35.2229 165.305C33.4212 158.616 27.25 154.473 27.25 154.473C27.25 154.473 23.9999 161.176 25.8016 167.865Z" fill="#3F3D56"/>
<path d="M28.4491 166.427C33.393 171.261 33.9968 178.692 33.9968 178.692C33.9968 178.692 26.585 178.285 21.6411 173.452C16.6972 168.618 16.0934 161.187 16.0934 161.187C16.0934 161.187 23.5052 161.594 28.4491 166.427Z" fill="#00BFA6"/>
<path d="M88.5801 65.6244L92.7684 51.7151C92.7684 51.7151 85.7381 45.296 90.5315 43.3702C95.3249 41.4445 96.6031 51.0732 96.6031 51.0732L95.0053 67.7629H88.6141L88.5801 65.6244Z" fill="#FFB8B8"/>
<path d="M76.311 173.839C76.311 173.839 82.0631 177.37 82.7022 177.37C83.3413 177.37 91.9694 179.616 88.1347 181.221C84.3 182.826 69.6002 180.579 69.9198 179.616C70.2394 178.653 69.9198 172.876 70.5589 172.876C71.198 172.876 76.311 173.839 76.311 173.839Z" fill="#2F2E41"/>
<path d="M87.8473 175.827C87.8473 175.827 93.5993 179.357 94.2384 179.357C94.8776 179.357 103.506 181.604 99.671 183.209C95.8362 184.814 81.1365 182.567 81.4561 181.604C81.7756 180.641 81.4561 174.864 82.0952 174.864C82.7343 174.864 87.8473 175.827 87.8473 175.827Z" fill="#2F2E41"/>
<path d="M76.6306 110.29C76.6306 110.29 77.5893 115.104 79.1871 118.635C80.7848 122.165 78.8675 138.855 77.9088 141.422C76.9501 143.99 67.6829 174.481 70.5589 174.802C73.435 175.123 79.1871 174.802 79.1871 174.802L88.4543 145.595L86.8565 106.438L76.6306 110.29Z" fill="#575A88"/>
<path opacity="0.1" d="M76.6306 110.29C76.6306 110.29 77.5893 115.104 79.1871 118.635C80.7848 122.165 78.8675 138.855 77.9088 141.422C76.9501 143.99 67.6829 174.481 70.5589 174.802C73.435 175.123 79.1871 174.802 79.1871 174.802L88.4543 145.595L86.8565 106.438L76.6306 110.29Z" fill="black"/>
<path d="M78.5479 110.611C78.5479 110.611 79.8261 119.276 82.7022 121.202C85.5782 123.128 84.6195 125.054 84.6195 125.054L83.3413 142.064C83.3413 142.064 70.8785 172.876 74.7132 176.728C78.5479 180.579 82.0631 178.974 83.6609 178.653C85.2587 178.332 88.1347 171.592 86.5369 169.667C84.9391 167.741 89.7325 156.186 91.0107 154.261C92.289 152.335 91.0107 149.767 92.6085 149.125C94.2063 148.483 97.7215 144.311 97.7215 141.422C97.7215 138.534 102.195 107.722 99.3193 105.796C96.4432 103.871 78.0081 109.771 78.0081 109.771L78.5479 110.611Z" fill="#575A88"/>
<path opacity="0.1" d="M86.4738 109.853C86.4738 109.853 87.4325 114.667 89.0303 118.197C90.6281 121.728 88.7108 138.418 87.7521 140.985C86.7934 143.553 77.5262 174.044 80.4022 174.365C83.2782 174.686 89.0303 174.365 89.0303 174.365L98.2975 145.158L96.6997 106.001L86.4738 109.853Z" fill="black"/>
<path d="M88.3912 110.173C88.3912 110.173 89.6695 118.839 92.5455 120.765C95.4215 122.691 94.4629 124.617 94.4629 124.617L93.1846 141.627C93.1846 141.627 80.7218 172.439 84.5565 176.291C88.3912 180.142 91.9064 178.537 93.5042 178.216C95.102 177.895 97.978 171.155 96.3802 169.229C94.7824 167.304 99.5758 155.749 100.854 153.824C102.132 151.898 100.854 149.33 102.452 148.688C104.05 148.046 107.565 143.874 107.565 140.985C107.565 138.097 112.039 107.285 109.163 105.359C106.287 103.433 87.8514 109.334 87.8514 109.334L88.3912 110.173Z" fill="#575A88"/>
<path d="M72.4763 65.6767C76.3591 65.6767 79.5067 62.5154 79.5067 58.6157C79.5067 54.716 76.3591 51.5546 72.4763 51.5546C68.5936 51.5546 65.446 54.716 65.446 58.6157C65.446 62.5154 68.5936 65.6767 72.4763 65.6767Z" fill="#FFB8B8"/>
<path d="M77.2697 58.6157C77.2697 58.6157 81.1044 65.6767 83.0218 65.6767C84.9391 65.6767 75.3524 73.0587 75.3524 73.0587C75.3524 73.0587 72.1568 63.751 71.5176 63.43C70.8785 63.1091 77.2697 58.6157 77.2697 58.6157Z" fill="#FFB8B8"/>
<path d="M78.5479 65.0348C78.5479 65.0348 70.2394 67.9234 70.559 68.8863C70.8785 69.8491 68.322 72.0958 68.322 73.0587C68.322 74.0216 67.6829 82.6874 71.5176 89.7484C75.3524 96.8094 81.424 101.945 78.5479 105.154C75.6719 108.364 71.1981 113.82 75.9915 113.82C80.7849 113.82 88.4543 106.759 95.4846 109.327C102.515 111.894 100.917 102.266 100.917 102.266C100.917 102.266 101.876 94.8837 99.9584 92.637C98.0411 90.3903 91.3303 74.3425 91.3303 72.4168C91.3303 70.491 84.9391 63.109 83.3413 63.109C81.7435 63.109 78.5479 65.0348 78.5479 65.0348Z" fill="#8985A8"/>
<path d="M91.0108 40.3211L96.4433 34.5439L102.834 37.4325C102.834 37.4325 108.795 50.5917 109.17 51.5546C109.545 52.5175 99.6389 57.0109 98.6802 57.0109C97.7215 57.0109 91.0108 47.0612 91.0108 47.0612C91.0108 47.0612 89.413 42.2469 91.0108 40.3211Z" fill="#F2F2F2"/>
<path d="M69.9715 53.1804C70.4113 52.9215 70.9308 52.5991 70.9433 52.0873C70.9319 51.8992 70.866 51.7186 70.7538 51.5676C70.6415 51.4166 70.4879 51.3018 70.3116 51.2373C69.957 51.1144 69.5816 51.0636 69.2073 51.0878C69.0637 51.0804 68.9198 51.0948 68.7804 51.1303C68.4164 51.2431 68.2067 51.6143 67.92 51.8662C67.5036 52.232 66.9302 52.3395 66.3948 52.4789C65.4977 52.7127 64.6374 53.0708 63.8387 53.5429C63.6809 53.623 63.5428 53.7371 63.4341 53.8772C63.3084 54.135 63.2524 54.4215 63.2716 54.7079C63.1994 55.7969 62.5494 56.7448 62.0641 57.7213C61.5788 58.6978 61.26 59.9142 61.8296 60.8437C62.0557 61.1329 62.2666 61.4336 62.4616 61.7448C62.8653 62.5896 62.3615 63.6298 62.6532 64.5199C62.7837 64.8703 62.9931 65.1857 63.265 65.4413C63.8262 66.009 64.5176 66.4294 65.2785 66.6658C66.0047 66.8904 66.9057 67.04 67.1901 67.7477C67.3121 68.0513 67.2872 68.4089 67.4593 68.6869C67.6726 69.0313 68.1122 69.1426 68.5093 69.216C68.955 69.3184 69.4137 69.3518 69.8695 69.3149C70.0974 69.2951 70.3189 69.229 70.5206 69.1206C70.7223 69.0121 70.9 68.8636 71.0428 68.6841C71.1716 68.4307 71.3312 68.1944 71.5179 67.9804C71.9806 67.592 72.6834 67.8988 73.2776 67.7959C73.5184 67.7503 73.7412 67.6366 73.9199 67.4681C74.0985 67.2997 74.2256 67.0836 74.2862 66.8451C74.3025 66.5911 74.3723 66.3435 74.4909 66.1185C74.8599 65.6442 75.8309 65.979 76.0746 65.4291C76.2329 65.0717 75.9017 64.6942 75.5814 64.4716C75.0592 64.1088 74.4754 63.8297 74.007 63.3991C73.5386 62.9684 73.1921 62.3241 73.3387 61.7035C73.5586 60.7729 74.7684 60.2605 74.8084 59.3049C74.8314 58.7575 74.4397 58.2771 74.0012 57.9511C73.5627 57.6251 73.0546 57.3909 72.6627 57.0098C72.3762 56.7312 72.1601 56.3816 71.8486 56.1315C71.2854 55.6792 70.5147 55.6243 69.7973 55.5504C69.4125 55.5107 67.8776 55.3322 67.938 54.7435C67.9881 54.2546 69.5809 53.4103 69.9715 53.1804Z" fill="#2F2E41"/>
<path d="M91.0108 40.0002C91.0108 40.0002 87.4957 41.284 87.4957 42.8888C87.4957 44.4936 85.8979 49.6289 87.4957 49.6289C89.0935 49.6289 92.289 48.3969 92.289 48.3969L91.0108 40.0002Z" fill="#F2F2F2"/>
<path d="M90.0521 63.109C90.0521 63.109 99.3193 59.8995 99.6389 59.8995C99.9584 59.8995 104.432 57.3318 104.113 56.369L102.834 48.3451C102.834 48.3451 97.7215 37.7535 101.237 37.7535C104.752 37.7535 106.669 46.0984 106.669 46.0984C106.669 46.0984 114.339 60.5414 110.184 63.751C106.03 66.9605 88.7738 72.7377 87.8152 71.7749C86.8565 70.812 90.0521 63.109 90.0521 63.109Z" fill="#FFB8B8"/>
<path d="M80.8391 64.3724C80.8391 64.3724 87.6973 61.2749 87.9338 61.2749C88.1703 61.2749 91.4811 58.7968 91.2446 57.8676L90.2987 50.1237C90.2987 50.1237 86.5148 39.9017 89.1162 39.9017C91.7176 39.9017 93.1365 47.9554 93.1365 47.9554C93.1365 47.9554 98.8123 61.8944 95.7379 64.992C92.6636 68.0895 79.8932 73.6651 79.1837 72.7358C78.4742 71.8066 80.8391 64.3724 80.8391 64.3724Z" fill="#FFB8B8"/>
<path d="M94.9438 40.0097C94.9438 40.0097 99.6389 44.1726 100.278 44.1726C100.917 44.1726 102.079 37.9179 102.079 37.9179C102.079 37.9179 98.2913 35.4388 96.888 36.1147C95.4846 36.7906 94.9438 40.0097 94.9438 40.0097Z" fill="#F2F2F2"/>
<path d="M78.548 66.9605C78.548 66.9605 78.548 62.4671 88.1348 62.4671H92.289L90.3717 73.0587L83.9805 74.9844L78.548 66.9605Z" fill="#8985A8"/>
<path d="M73.4509 67.6922C73.4509 67.6922 73.4509 63.1988 83.0377 63.1988H87.192L85.2746 73.7903L78.8835 75.7161L73.4509 67.6922Z" fill="#8985A8"/>
<path d="M94.3279 85.8831C94.3279 85.8831 100.643 85.6925 101.045 99.1378L101.22 104.964L86.2537 102.724L83.279 93.8424L94.3279 85.8831Z" fill="#8985A8"/>
<path d="M90.2304 76.9321C90.2304 76.9321 96.043 74.4457 101.293 86.821L103.568 92.1836L88.8168 95.5695L82.8258 88.3849L90.2304 76.9321Z" fill="#8985A8"/>
<path d="M100.125 84.6765C100.125 84.6765 106.076 86.8067 101.578 99.4772L99.6292 104.968L86.501 97.4123L86.949 88.0524L100.125 84.6765Z" fill="#8985A8"/>
<path d="M86.9168 65.1245C86.9168 65.1245 78.6082 68.0131 78.9278 68.976C79.2474 69.9389 76.6909 72.1856 76.6909 73.1484C76.6909 74.1113 76.0518 82.7771 79.8865 89.8382C83.7212 96.8992 89.7928 102.035 86.9168 105.244C84.0407 108.454 79.5669 113.91 84.3603 113.91C89.1537 113.91 96.8231 106.849 103.853 109.416C110.884 111.984 109.286 102.355 109.286 102.355C109.286 102.355 110.245 94.9735 108.327 92.7268C106.41 90.4801 99.6992 74.4323 99.6992 72.5065C99.6992 70.5808 93.308 63.1988 91.7102 63.1988C90.1124 63.1988 86.9168 65.1245 86.9168 65.1245Z" fill="#8985A8"/>
<path d="M102.697 85.9728C102.697 85.9728 109.012 85.7823 109.414 99.2276L109.589 105.054L94.6225 102.814L91.6478 93.9321L102.697 85.9728Z" fill="#8985A8"/>
<path d="M98.5993 77.0218C98.5993 77.0218 104.412 74.5354 109.662 86.9107L111.937 92.2734L97.1857 95.6592L91.1947 88.4746L98.5993 77.0218Z" fill="#8985A8"/>
<path d="M108.494 84.7662C108.494 84.7662 114.445 86.8965 109.947 99.5669L107.998 105.057L94.8698 97.502L95.3179 88.1421L108.494 84.7662Z" fill="#8985A8"/>
</g>
<defs>
<clipPath id="clip0">
<rect width="180" height="192" fill="white"/>
</clipPath>
</defs>
</svg>
