<svg width="173" height="173" viewBox="0 0 173 173" fill="none" xmlns="http://www.w3.org/2000/svg">
<circle cx="86.5" cy="86.5" r="86.5" fill="#3F3D56"/>
<g clip-path="url(#clip0)">
<path d="M122.306 25.9828C113.684 16.8025 101.696 12.4683 86.6433 13.0514C63.5541 13.9359 48.2389 20.9357 41.1166 33.8523C30.9808 52.2399 43.2237 73.8443 43.7529 74.7557C46.8742 80.1556 53.825 82.0127 59.242 78.911C64.664 75.8043 66.5628 68.8511 63.4782 63.4071C61.8048 60.4573 57.772 50.7086 61.0698 44.7966C64.0025 39.5315 73.3935 36.3293 87.5106 35.7854C95.8481 35.4693 101.785 37.3681 105.717 41.5552C113.689 50.0446 113.819 66.9915 112.521 79.7097C110.659 98.0017 103.529 114.41 91.906 127.162C90.9186 128.247 89.9876 128.791 89.0639 128.828C87.0279 128.862 84.4407 126.498 82.3949 124.563C80.528 122.799 78.9159 121.275 77.0906 120.853C74.8145 120.334 72.8006 121.441 71.1811 122.333C70.4216 122.747 69.1402 123.45 68.7849 123.298C68.7457 123.284 67.8074 122.865 66.7073 119.285C65.7224 116.073 63.39 113.476 60.3029 112.156C57.2281 110.835 53.7196 110.953 50.7722 112.428C49.8535 112.849 49.1381 113.711 48.3786 115.321C45.5561 121.321 45.8942 128.443 49.2851 134.373C55.2338 144.778 64.0196 157.565 72.1023 159.378C73.9251 159.787 75.8019 159.995 77.6737 159.995C87.6895 159.995 98.134 154.105 108.718 142.49C123.654 126.109 132.792 105.197 135.154 82.0152C137.739 56.6671 133.417 37.814 122.306 25.9828ZM130.283 81.5227C128.032 103.652 119.322 123.595 105.102 139.192C93.7901 151.609 83.0025 156.803 73.1803 154.6C68.3072 153.507 61.1482 145.248 53.5432 131.945C50.9437 127.4 50.6718 121.968 52.8156 117.408C52.9822 117.056 53.1047 116.84 53.1831 116.71C54.8687 115.963 56.6989 115.943 58.3747 116.659C60.1339 117.413 61.4618 118.893 62.0228 120.723C63.2479 124.712 64.811 126.973 66.9401 127.838C69.4661 128.862 71.8132 127.574 73.5331 126.63C74.3784 126.167 75.503 125.518 75.9954 125.631C76.5614 125.795 78.0461 127.199 79.0261 128.127C81.6746 130.629 84.9577 133.731 88.9561 133.731C89.0517 133.731 89.1472 133.731 89.2452 133.726C91.5189 133.642 93.6308 132.545 95.5247 130.467C107.861 116.933 115.421 99.555 117.394 80.2095C118.79 66.4746 118.521 48.038 109.284 38.2011C104.328 32.9213 97.1417 30.5031 87.3244 30.8902C70.9655 31.5199 60.6925 35.3958 56.7846 42.4103C52.5314 50.0422 56.5127 61.06 59.2102 65.8229C60.9718 68.9271 59.8888 72.8912 56.8042 74.6577C53.727 76.4193 49.7702 75.3682 47.9914 72.3008C47.521 71.4874 36.589 52.208 45.4042 36.2141C51.6371 24.9096 65.5729 18.76 86.8295 17.9442C100.378 17.415 111.124 21.2395 118.729 29.3344C128.828 40.0852 132.714 57.6446 130.283 81.5227Z" fill="#00BFA6"/>
<path d="M71.3109 98.7514C67.7902 98.8764 65.1197 100.574 64.1568 103.291C63.265 105.81 64.0882 108.569 66.2982 110.494C67.4423 111.487 69.8507 112.994 73.9643 112.994C77.2572 112.994 81.6428 112.028 87.3415 109.069C97.6146 103.732 103.465 96.0368 103.387 87.9517C103.306 79.5529 97.1074 71.8818 85.9401 66.357C83.7326 65.2643 81.4051 64.6983 79.2197 64.2524C74.6871 63.3239 71.3991 59.2886 71.3991 54.6507C71.3991 49.2459 75.7945 44.8506 81.1993 44.8506C82.5542 44.8506 83.6493 43.7554 83.6493 42.4005C83.6493 41.0456 82.5542 39.9505 81.1993 39.9505C73.0921 39.9505 66.4991 46.5435 66.4991 54.6507C66.4991 61.6039 71.4383 67.6629 78.2372 69.0521C80.1017 69.4343 82.0593 69.9047 83.7694 70.7499C93.1996 75.4148 98.4255 81.5424 98.4892 88.0007C98.548 94.1748 93.6627 100.268 85.0851 104.72C76.7819 109.032 71.5094 108.532 69.5175 106.8C68.8535 106.224 68.5718 105.509 68.7751 104.928C69.0373 104.188 70.0737 103.698 71.3967 103.652C76.8015 103.652 81.1968 99.2562 81.1968 93.8514C81.1968 88.4466 76.8015 84.0512 71.3967 84.0512C70.0418 84.0512 68.9466 85.1464 68.9466 86.5012C68.9466 87.8561 70.0418 88.9513 71.3967 88.9513C74.0991 88.9513 76.2968 91.149 76.2968 93.8514C76.2968 96.5538 74.0991 98.749 71.3109 98.7514Z" fill="#00BFA6"/>
</g>
<defs>
<clipPath id="clip0">
<rect width="147" height="147" fill="white" transform="translate(13 13)"/>
</clipPath>
</defs>
</svg>
