<svg width="195" height="103" viewBox="0 0 195 103" fill="none" xmlns="http://www.w3.org/2000/svg">
<path d="M195 0H0V103H195V0Z" fill="#E6E6E6"/>
<path d="M6 97H189V6H6V97Z" fill="white"/>
<path d="M85 19H20V84H85V19Z" fill="#3F3D56"/>
<path d="M70 49C71.1046 49 72 48.1046 72 47C72 45.8954 71.1046 45 70 45C68.8954 45 68 45.8954 68 47C68 48.1046 68.8954 49 70 49Z" fill="#00BFA6"/>
<path d="M62.5 42C63.3284 42 64 41.1046 64 40C64 38.8954 63.3284 38 62.5 38C61.6716 38 61 38.8954 61 40C61 41.1046 61.6716 42 62.5 42Z" fill="#00BFA6"/>
<path d="M61.2979 46.7389C60.6168 46.739 59.9492 46.9374 59.3692 47.3119C58.8585 46.5065 58.2581 45.7677 57.5808 45.111C57.5887 45.0074 57.5959 44.9037 57.5959 44.798C57.5964 44.0364 57.3831 43.2914 56.9825 42.6561C56.582 42.0207 56.0119 41.5231 55.3434 41.2252C54.6749 40.9273 53.9375 40.8424 53.2233 40.981C52.5091 41.1196 51.8495 41.4756 51.327 42.0046C50.3356 41.8571 49.33 41.8479 48.3364 41.9772C48.337 41.9468 48.3407 41.9172 48.3407 41.8866C48.3415 41.2369 48.1867 40.5974 47.8906 40.0266C47.5945 39.4559 47.1664 38.9722 46.6457 38.62C46.125 38.2677 45.5284 38.0582 44.9104 38.0105C44.2924 37.9628 43.6729 38.0785 43.1086 38.347C42.5444 38.6156 42.0534 39.0283 41.6808 39.5475C41.3082 40.0666 41.0658 40.6755 40.9758 41.3183C40.8859 41.9612 40.9513 42.6174 41.166 43.2269C41.3807 43.8364 41.7379 44.3796 42.2048 44.8068C41.5851 45.3634 41.0229 45.9869 40.5276 46.6669C40.0707 46.2682 39.5289 45.9908 38.948 45.858C38.3672 45.7253 37.7644 45.7412 37.1907 45.9044C36.6169 46.0676 36.0891 46.3732 35.6519 46.7956C35.2146 47.2179 34.8808 47.7444 34.6786 48.3305C34.4765 48.9167 34.4119 49.5453 34.4905 50.1632C34.569 50.7811 34.7883 51.37 35.1298 51.8803C35.4713 52.3905 35.9249 52.8069 36.4524 53.0945C36.9799 53.382 37.5656 53.532 38.1601 53.532L38.1718 53.5314C38.1657 53.6927 38.1601 53.8543 38.1601 54.0172C38.1602 54.9939 38.2726 55.967 38.4949 56.9154C37.3947 57.3495 36.4177 58.0696 35.6556 59.0081C34.8935 59.9467 34.3713 61.0728 34.138 62.2809C33.9047 63.489 33.968 64.7395 34.3219 65.9149C34.6758 67.0904 35.3087 68.1523 36.1613 69.0009C37.0138 69.8496 38.058 70.4572 39.1959 70.7668C40.3338 71.0764 41.528 71.0777 42.6665 70.7708C43.805 70.4638 44.8505 69.8585 45.7048 69.0118C46.5591 68.1651 47.1942 67.1046 47.5506 65.93C50.1257 66.449 52.7926 66.0341 55.1131 64.7537C55.3501 65.3386 55.7203 65.8536 56.1914 66.2535C56.6625 66.6533 57.22 66.9258 57.8149 67.047C58.4099 67.1682 59.0241 67.1344 59.6037 66.9485C60.1833 66.7627 60.7105 66.4305 61.139 65.9811C61.5676 65.5318 61.8844 64.979 62.0616 64.3713C62.2388 63.7635 62.2711 63.1195 62.1555 62.4956C62.0399 61.8718 61.7801 61.2873 61.3987 60.7933C61.0174 60.2994 60.5262 59.9112 59.9684 59.6627C60.7701 58.0674 61.2204 56.3038 61.2862 54.5018L61.2979 54.5024C62.2798 54.5024 63.2214 54.0935 63.9157 53.3655C64.61 52.6375 65 51.6502 65 50.6207C65 49.5911 64.61 48.6038 63.9157 47.8758C63.2214 47.1478 62.2798 46.7389 61.2979 46.7389V46.7389Z" fill="#00BFA6"/>
<path d="M61 18H42V20H61V18Z" fill="#E6E6E6"/>
<path d="M169 19H103V84H169V19Z" fill="#3F3D56"/>
<path d="M148.5 63C148.776 63 149 62.7761 149 62.5C149 62.2239 148.776 62 148.5 62C148.224 62 148 62.2239 148 62.5C148 62.7761 148.224 63 148.5 63Z" fill="#00BFA6"/>
<path d="M145 60C145.552 60 146 59.7761 146 59.5C146 59.2239 145.552 59 145 59C144.448 59 144 59.2239 144 59.5C144 59.7761 144.448 60 145 60Z" fill="#00BFA6"/>
<path d="M144.328 62.7074C144.02 62.7074 143.719 62.7916 143.457 62.9505C143.226 62.6088 142.955 62.2954 142.649 62.0168C142.653 61.9729 142.656 61.9288 142.656 61.884C142.656 61.5609 142.56 61.2448 142.379 60.9753C142.198 60.7057 141.941 60.4946 141.639 60.3682C141.337 60.2419 141.004 60.2058 140.682 60.2646C140.359 60.3234 140.061 60.4745 139.825 60.6989C139.377 60.6363 138.923 60.6324 138.474 60.6873C138.475 60.6744 138.476 60.6618 138.476 60.6489C138.477 60.3732 138.407 60.1019 138.273 59.8598C138.139 59.6176 137.946 59.4125 137.711 59.263C137.476 59.1136 137.206 59.0247 136.927 59.0044C136.648 58.9842 136.368 59.0333 136.114 59.1472C135.859 59.2612 135.637 59.4363 135.469 59.6565C135.3 59.8767 135.191 60.1351 135.15 60.4078C135.11 60.6805 135.139 60.9589 135.236 61.2175C135.333 61.476 135.495 61.7065 135.705 61.8877C135.426 62.1239 135.172 62.3884 134.948 62.6769C134.742 62.5077 134.497 62.39 134.235 62.3337C133.972 62.2774 133.7 62.2841 133.441 62.3534C133.182 62.4226 132.943 62.5523 132.746 62.7315C132.549 62.9106 132.398 63.134 132.306 63.3827C132.215 63.6313 132.186 63.898 132.222 64.1602C132.257 64.4223 132.356 64.6721 132.51 64.8886C132.664 65.105 132.869 65.2817 133.108 65.4037C133.346 65.5257 133.61 65.5893 133.879 65.5893L133.884 65.5891C133.881 65.6575 133.879 65.7261 133.879 65.7952C133.879 66.2095 133.93 66.6224 134.03 67.0247C133.533 67.2089 133.092 67.5144 132.748 67.9125C132.404 68.3107 132.168 68.7885 132.062 69.301C131.957 69.8135 131.986 70.344 132.145 70.8427C132.305 71.3414 132.591 71.7919 132.976 72.1519C133.361 72.512 133.833 72.7697 134.347 72.9011C134.86 73.0324 135.4 73.033 135.914 72.9027C136.428 72.7725 136.9 72.5157 137.286 72.1565C137.672 71.7973 137.959 71.3474 138.12 70.8491C139.283 71.0693 140.487 70.8933 141.535 70.35C141.642 70.5982 141.809 70.8167 142.022 70.9863C142.235 71.1559 142.486 71.2715 142.755 71.323C143.024 71.3744 143.301 71.36 143.563 71.2812C143.825 71.2024 144.063 71.0614 144.256 70.8708C144.45 70.6802 144.593 70.4456 144.673 70.1878C144.753 69.93 144.768 69.6568 144.715 69.3921C144.663 69.1274 144.546 68.8795 144.374 68.6699C144.201 68.4604 143.98 68.2956 143.728 68.1902C144.09 67.5134 144.293 66.7652 144.323 66.0008L144.328 66.001C144.772 66.001 145.197 65.8275 145.51 65.5187C145.824 65.2099 146 64.791 146 64.3542C146 63.9175 145.824 63.4986 145.51 63.1897C145.197 62.8809 144.772 62.7074 144.328 62.7074V62.7074Z" fill="#00BFA6"/>
<path d="M155 47C155.552 47 156 46.5523 156 46C156 45.4477 155.552 45 155 45C154.448 45 154 45.4477 154 46C154 46.5523 154.448 47 155 47Z" fill="#00BFA6"/>
<path d="M157 43C157.552 43 158 42.7761 158 42.5C158 42.2239 157.552 42 157 42C156.448 42 156 42.2239 156 42.5C156 42.7761 156.448 43 157 43Z" fill="#00BFA6"/>
<path d="M154.275 42.571C154.188 42.2703 154.016 41.9989 153.779 41.7873C154.063 41.4662 154.307 41.1134 154.505 40.7364C154.551 40.7276 154.597 40.7185 154.643 40.706C154.974 40.6159 155.271 40.4333 155.495 40.181C155.72 39.9288 155.863 39.618 155.907 39.2875C155.95 38.9569 155.892 38.6212 155.741 38.3223C155.589 38.0233 155.35 37.7743 155.053 37.6062C154.99 37.1509 154.865 36.7058 154.681 36.2823C154.694 36.279 154.708 36.2771 154.721 36.2735C155.003 36.1968 155.261 36.0526 155.471 35.8541C155.681 35.6556 155.836 35.4092 155.923 35.1375C156.009 34.8658 156.023 34.5774 155.965 34.2989C155.906 34.0203 155.776 33.7604 155.587 33.5431C155.398 33.3258 155.156 33.1579 154.883 33.055C154.609 32.952 154.314 32.9171 154.023 32.9537C153.732 32.9902 153.455 33.0969 153.218 33.264C152.981 33.4311 152.791 33.6533 152.665 33.9102C152.344 33.7025 152.001 33.5282 151.642 33.3901C151.756 33.141 151.807 32.8689 151.79 32.5966C151.774 32.3244 151.689 32.0601 151.545 31.826C151.4 31.592 151.2 31.3952 150.96 31.2522C150.721 31.1092 150.449 31.0242 150.169 31.0045C149.888 30.9847 149.607 31.0308 149.348 31.1387C149.09 31.2467 148.862 31.4134 148.684 31.6247C148.506 31.836 148.384 32.0858 148.326 32.3528C148.269 32.6198 148.279 32.8963 148.355 33.1588L148.357 33.1639C148.286 33.1804 148.215 33.1971 148.145 33.2164C147.72 33.3323 147.312 33.4973 146.928 33.708C146.599 33.2736 146.161 32.9276 145.655 32.7023C145.15 32.4771 144.593 32.3801 144.039 32.4203C143.484 32.4606 142.949 32.6368 142.483 32.9326C142.018 33.2283 141.638 33.6337 141.379 34.1109C141.119 34.588 140.989 35.1212 141.001 35.6604C141.012 36.1996 141.165 36.7272 141.444 37.1936C141.724 37.6599 142.121 38.0498 142.598 38.3267C143.076 38.6035 143.618 38.7582 144.174 38.7762C144.279 39.975 144.801 41.1035 145.655 41.9764C145.431 42.1504 145.255 42.375 145.142 42.6305C145.029 42.8859 144.982 43.1644 145.005 43.4416C145.029 43.7187 145.123 43.9859 145.278 44.2198C145.433 44.4537 145.645 44.6471 145.895 44.7831C146.145 44.9191 146.426 44.9934 146.713 44.9996C146.999 45.0058 147.283 44.9436 147.54 44.8186C147.796 44.6935 148.016 44.5095 148.182 44.2825C148.348 44.0555 148.453 43.7925 148.49 43.5167C149.286 43.6815 150.11 43.6712 150.901 43.4866L150.902 43.4918C150.964 43.7067 151.07 43.9075 151.212 44.0829C151.354 44.2583 151.531 44.4047 151.732 44.5139C151.932 44.6231 152.153 44.6928 152.382 44.7192C152.611 44.7455 152.842 44.728 153.064 44.6675C153.285 44.607 153.493 44.5048 153.673 44.3667C153.854 44.2285 154.005 44.0572 154.118 43.8625C154.23 43.6678 154.302 43.4536 154.329 43.232C154.356 43.0103 154.338 42.7858 154.275 42.571V42.571Z" fill="#00BFA6"/>
<path d="M122 36C122.552 36 123 35.5523 123 35C123 34.4477 122.552 34 122 34C121.448 34 121 34.4477 121 35C121 35.5523 121.448 36 122 36Z" fill="#00BFA6"/>
<path d="M118 36C118.552 36 119 35.5523 119 35C119 34.4477 118.552 34 118 34C117.448 34 117 34.4477 117 35C117 35.5523 117.448 36 118 36Z" fill="#00BFA6"/>
<path d="M119.657 37.5676C119.44 37.8036 119.294 38.0948 119.234 38.4086C118.804 38.3426 118.368 38.3278 117.934 38.3644C117.902 38.3304 117.87 38.2966 117.835 38.2647C117.582 38.0348 117.267 37.884 116.928 37.8311C116.59 37.7782 116.243 37.8256 115.932 37.9674C115.62 38.1091 115.358 38.3389 115.177 38.6282C114.995 38.9175 114.904 39.2534 114.914 39.594C114.549 39.8929 114.227 40.2386 113.954 40.6219C113.944 40.6124 113.935 40.6022 113.925 40.593C113.709 40.3967 113.448 40.2574 113.164 40.1879C112.88 40.1183 112.583 40.1207 112.301 40.1949C112.018 40.269 111.759 40.4125 111.546 40.6122C111.334 40.8119 111.176 41.0615 111.085 41.338C110.995 41.6145 110.976 41.9091 111.03 42.1948C111.084 42.4805 111.209 42.7481 111.394 42.9732C111.579 43.1983 111.818 43.3736 112.089 43.483C112.359 43.5925 112.653 43.6326 112.944 43.5997C112.932 43.9823 112.96 44.3651 113.028 44.7419C112.751 44.7799 112.486 44.8839 112.257 45.0451C112.029 45.2063 111.842 45.42 111.714 45.668C111.586 45.916 111.519 46.191 111.521 46.4699C111.522 46.7488 111.591 47.0233 111.721 47.2701C111.851 47.517 112.04 47.729 112.27 47.8881C112.5 48.0473 112.766 48.149 113.044 48.1846C113.322 48.2202 113.604 48.1886 113.868 48.0926C114.131 47.9966 114.367 47.8389 114.556 47.633L114.559 47.6287C114.611 47.6795 114.663 47.7302 114.717 47.7793C115.042 48.0739 115.401 48.3285 115.786 48.5376C115.581 49.0497 115.509 49.6054 115.579 50.1526C115.648 50.6997 115.856 51.2203 116.183 51.6656C116.51 52.1108 116.946 52.4661 117.449 52.6981C117.952 52.93 118.506 53.0311 119.059 52.9917C119.612 52.9523 120.146 52.7739 120.61 52.473C121.075 52.1722 121.455 51.7588 121.715 51.2718C121.975 50.7847 122.107 50.24 122.097 49.6886C122.087 49.1372 121.937 48.5972 121.66 48.1195C122.652 47.3838 123.362 46.3347 123.674 45.1445C123.944 45.2389 124.233 45.266 124.515 45.2234C124.798 45.1808 125.066 45.0698 125.295 44.9003C125.525 44.7307 125.709 44.5077 125.831 44.2508C125.954 43.994 126.011 43.7111 125.998 43.4271C125.985 43.1431 125.902 42.8665 125.757 42.6218C125.611 42.3771 125.408 42.1717 125.164 42.0235C124.92 41.8754 124.643 41.7891 124.358 41.7722C124.072 41.7553 123.787 41.8084 123.527 41.9267C123.252 41.1677 122.809 40.4797 122.232 39.9133L122.236 39.9095C122.391 39.7411 122.511 39.544 122.589 39.3294C122.667 39.1149 122.702 38.887 122.692 38.659C122.682 38.4309 122.627 38.2072 122.529 38.0004C122.432 37.7937 122.295 37.608 122.125 37.4541C121.956 37.3002 121.757 37.181 121.542 37.1034C121.326 37.0258 121.097 36.9913 120.867 37.0019C120.638 37.0124 120.413 37.0678 120.205 37.1649C119.998 37.2619 119.811 37.3988 119.657 37.5676V37.5676Z" fill="#00BFA6"/>
<path d="M144 18H125V20H144V18Z" fill="#E6E6E6"/>
</svg>
