<svg width="358" height="189" viewBox="0 0 358 189" fill="none" xmlns="http://www.w3.org/2000/svg">
<path d="M357.816 0H0V189H357.816V0Z" fill="#E6E6E6"/>
<path d="M11.0097 177.99H346.806V11.0097H11.0097V177.99Z" fill="white"/>
<path d="M155.971 34.8641H36.6991V154.136H155.971V34.8641Z" fill="#3F3D56"/>
<path d="M128.447 89.9126C130.473 89.9126 132.117 88.2695 132.117 86.2427C132.117 84.2159 130.473 82.5728 128.447 82.5728C126.42 82.5728 124.777 84.2159 124.777 86.2427C124.777 88.2695 126.42 89.9126 128.447 89.9126Z" fill="#00BFA6"/>
<path d="M114.684 77.068C116.205 77.068 117.437 75.4249 117.437 73.3981C117.437 71.3712 116.205 69.7282 114.684 69.7282C113.164 69.7282 111.932 71.3712 111.932 73.3981C111.932 75.4249 113.164 77.068 114.684 77.068Z" fill="#00BFA6"/>
<path d="M112.479 85.7635C111.229 85.7638 110.004 86.1278 108.94 86.815C108.002 85.3371 106.901 83.9814 105.658 82.7765C105.672 82.5865 105.686 82.3961 105.686 82.2021C105.687 80.8046 105.295 79.4376 104.56 78.2718C103.825 77.106 102.779 76.1928 101.552 75.6462C100.326 75.0996 98.9727 74.9438 97.6621 75.1981C96.3515 75.4524 95.1413 76.1057 94.1825 77.0764C92.3634 76.8057 90.5181 76.7888 88.6948 77.0262C88.6961 76.9704 88.7028 76.9161 88.7028 76.86C88.7043 75.6677 88.4203 74.4942 87.8769 73.4469C87.3335 72.3997 86.548 71.5122 85.5926 70.8658C84.6372 70.2194 83.5423 69.8349 82.4083 69.7474C81.2744 69.6599 80.1375 69.8722 79.1022 70.365C78.0668 70.8577 77.166 71.6151 76.4822 72.5677C75.7984 73.5203 75.3536 74.6376 75.1886 75.8172C75.0235 76.9968 75.1436 78.201 75.5376 79.3193C75.9316 80.4377 76.587 81.4344 77.4438 82.2183C76.3066 83.2397 75.275 84.3838 74.3662 85.6316C73.5277 84.8999 72.5335 84.3908 71.4677 84.1472C70.4019 83.9037 69.2958 83.9329 68.2431 84.2323C67.1903 84.5318 66.2217 85.0927 65.4194 85.8676C64.6171 86.6425 64.0045 87.6086 63.6335 88.6842C63.2626 89.7598 63.1442 90.9133 63.2883 92.0471C63.4324 93.1808 63.8347 94.2615 64.4614 95.1978C65.088 96.134 65.9205 96.8982 66.8883 97.4257C67.8562 97.9533 68.931 98.2287 70.0218 98.2286L70.0433 98.2274C70.0322 98.5236 70.0218 98.8199 70.0218 99.1189C70.0221 100.911 70.2284 102.697 70.6363 104.437C68.6174 105.234 66.8246 106.555 65.4262 108.277C64.0278 109.999 63.0696 112.066 62.6415 114.282C62.2135 116.499 62.3296 118.794 62.979 120.951C63.6284 123.108 64.7897 125.056 66.3541 126.613C67.9185 128.171 69.8346 129.286 71.9225 129.854C74.0105 130.422 76.2018 130.424 78.291 129.861C80.3801 129.298 82.2985 128.187 83.8661 126.633C85.4337 125.08 86.5991 123.134 87.2529 120.978C91.9782 121.931 96.8718 121.169 101.13 118.82C101.565 119.893 102.244 120.838 103.108 121.572C103.973 122.306 104.996 122.806 106.088 123.028C107.179 123.25 108.306 123.188 109.37 122.847C110.433 122.506 111.401 121.897 112.187 121.072C112.974 120.248 113.555 119.233 113.88 118.118C114.205 117.003 114.264 115.821 114.052 114.676C113.84 113.532 113.363 112.459 112.664 111.553C111.964 110.646 111.063 109.934 110.039 109.478C111.51 106.551 112.336 103.315 112.457 100.008L112.479 100.009C114.28 100.009 116.008 99.2589 117.282 97.9231C118.556 96.5873 119.272 94.7756 119.272 92.8865C119.272 90.9974 118.556 89.1856 117.282 87.8498C116.008 86.514 114.28 85.7636 112.479 85.7636V85.7635Z" fill="#00BFA6"/>
<path d="M111.932 33.0291H77.0679V36.699H111.932V33.0291Z" fill="#E6E6E6"/>
<path d="M310.107 34.8641H189V154.136H310.107V34.8641Z" fill="#3F3D56"/>
<path d="M272.49 115.602C272.997 115.602 273.408 115.191 273.408 114.684C273.408 114.178 272.997 113.767 272.49 113.767C271.984 113.767 271.573 114.178 271.573 114.684C271.573 115.191 271.984 115.602 272.49 115.602Z" fill="#00BFA6"/>
<path d="M266.068 110.097C267.081 110.097 267.903 109.686 267.903 109.18C267.903 108.673 267.081 108.262 266.068 108.262C265.055 108.262 264.233 108.673 264.233 109.18C264.233 109.686 265.055 110.097 266.068 110.097Z" fill="#00BFA6"/>
<path d="M264.835 115.065C264.271 115.065 263.717 115.22 263.237 115.511C262.814 114.884 262.316 114.309 261.755 113.798C261.761 113.717 261.767 113.636 261.767 113.554C261.768 112.961 261.591 112.381 261.259 111.887C260.927 111.392 260.455 111.005 259.901 110.773C259.347 110.541 258.736 110.475 258.144 110.583C257.552 110.691 257.005 110.968 256.572 111.38C255.751 111.265 254.917 111.258 254.094 111.358C254.095 111.335 254.098 111.312 254.098 111.288C254.098 110.782 253.97 110.284 253.725 109.84C253.479 109.395 253.124 109.019 252.693 108.745C252.262 108.471 251.767 108.307 251.255 108.27C250.743 108.233 250.229 108.323 249.762 108.532C249.294 108.741 248.887 109.063 248.579 109.467C248.27 109.871 248.069 110.345 247.994 110.845C247.92 111.346 247.974 111.857 248.152 112.331C248.33 112.806 248.626 113.228 249.013 113.561C248.499 113.994 248.033 114.48 247.623 115.009C247.244 114.699 246.795 114.483 246.314 114.379C245.833 114.276 245.333 114.288 244.858 114.415C244.382 114.542 243.945 114.78 243.583 115.109C243.22 115.438 242.944 115.848 242.776 116.304C242.608 116.76 242.555 117.25 242.62 117.731C242.685 118.212 242.867 118.67 243.15 119.067C243.433 119.465 243.809 119.789 244.246 120.013C244.683 120.236 245.168 120.353 245.661 120.353L245.671 120.353C245.666 120.478 245.661 120.604 245.661 120.731C245.661 121.491 245.754 122.249 245.939 122.987C245.027 123.325 244.217 123.886 243.586 124.616C242.954 125.347 242.521 126.224 242.328 127.164C242.135 128.104 242.187 129.078 242.48 129.993C242.774 130.908 243.298 131.735 244.005 132.395C244.711 133.056 245.576 133.529 246.519 133.77C247.462 134.011 248.452 134.012 249.395 133.773C250.339 133.534 251.205 133.063 251.913 132.404C252.621 131.745 253.148 130.919 253.443 130.005C255.577 130.409 257.787 130.086 259.71 129.089C259.906 129.544 260.213 129.945 260.603 130.256C260.994 130.568 261.456 130.78 261.949 130.874C262.442 130.969 262.951 130.942 263.431 130.798C263.911 130.653 264.348 130.394 264.703 130.044C265.059 129.695 265.321 129.264 265.468 128.791C265.615 128.318 265.641 127.817 265.546 127.331C265.45 126.845 265.235 126.39 264.919 126.006C264.603 125.621 264.196 125.319 263.733 125.126C264.398 123.884 264.771 122.511 264.825 121.108L264.835 121.109C265.649 121.109 266.429 120.79 267.004 120.224C267.58 119.657 267.903 118.888 267.903 118.087C267.903 117.285 267.58 116.517 267.004 115.95C266.429 115.383 265.649 115.065 264.835 115.065V115.065Z" fill="#00BFA6"/>
<path d="M284.417 86.2427C285.431 86.2427 286.252 85.4212 286.252 84.4078C286.252 83.3943 285.431 82.5728 284.417 82.5728C283.404 82.5728 282.583 83.3943 282.583 84.4078C282.583 85.4212 283.404 86.2427 284.417 86.2427Z" fill="#00BFA6"/>
<path d="M288.087 78.9029C289.101 78.9029 289.922 78.4921 289.922 77.9854C289.922 77.4787 289.101 77.068 288.087 77.068C287.074 77.068 286.252 77.4787 286.252 77.9854C286.252 78.4921 287.074 78.9029 288.087 78.9029Z" fill="#00BFA6"/>
<path d="M283.087 78.1158C282.927 77.5639 282.611 77.066 282.176 76.6776C282.698 76.0884 283.146 75.4411 283.51 74.7494C283.594 74.7332 283.679 74.7165 283.763 74.6934C284.37 74.5281 284.914 74.1931 285.326 73.7303C285.738 73.2674 286.001 72.6971 286.081 72.0906C286.161 71.4841 286.055 70.8681 285.777 70.3195C285.498 69.7709 285.059 69.3139 284.514 69.0056C284.398 68.1702 284.169 67.3533 283.832 66.5763C283.856 66.5702 283.881 66.5667 283.905 66.5601C284.423 66.4193 284.897 66.1547 285.282 65.7905C285.667 65.4263 285.952 64.9742 286.11 64.4756C286.269 63.977 286.295 63.4479 286.188 62.9368C286.08 62.4256 285.842 61.9488 285.495 61.55C285.148 61.1512 284.704 60.8432 284.202 60.6542C283.701 60.4653 283.158 60.4014 282.624 60.4684C282.091 60.5354 281.583 60.7312 281.148 61.0379C280.712 61.3445 280.363 61.7522 280.133 62.2235C279.543 61.8425 278.914 61.5226 278.255 61.2693C278.465 60.8122 278.559 60.3128 278.528 59.8132C278.497 59.3136 278.343 58.8287 278.078 58.3992C277.812 57.9698 277.444 57.6087 277.005 57.3463C276.565 57.0838 276.067 56.9279 275.552 56.8917C275.037 56.8554 274.521 56.9399 274.047 57.1381C273.573 57.3362 273.155 57.642 272.828 58.0298C272.502 58.4176 272.277 58.8758 272.172 59.3658C272.067 59.8558 272.085 60.3631 272.225 60.8448L272.228 60.8542C272.098 60.8844 271.968 60.915 271.838 60.9505C271.06 61.1631 270.31 61.466 269.607 61.8525C269.002 61.0554 268.198 60.4205 267.27 60.0072C266.342 59.5939 265.322 59.4158 264.304 59.4897C263.286 59.5636 262.304 59.887 261.45 60.4296C260.596 60.9722 259.899 61.7162 259.423 62.5918C258.947 63.4673 258.708 64.4457 258.729 65.4352C258.751 66.4246 259.031 67.3926 259.543 68.2484C260.056 69.1041 260.785 69.8196 261.661 70.3276C262.537 70.8356 263.532 71.1194 264.552 71.1525C264.745 73.3522 265.703 75.423 267.27 77.0247C266.86 77.344 266.536 77.7561 266.328 78.2249C266.12 78.6936 266.034 79.2047 266.078 79.7131C266.121 80.2216 266.293 80.712 266.577 81.1412C266.862 81.5704 267.251 81.9253 267.71 82.1748C268.169 82.4243 268.684 82.5607 269.211 82.572C269.737 82.5834 270.258 82.4694 270.728 82.2399C271.198 82.0105 271.603 81.6727 271.907 81.2562C272.211 80.8397 272.405 80.3572 272.471 79.8511C273.932 80.1535 275.444 80.1346 276.896 79.7958L276.898 79.8054C277.012 80.1996 277.206 80.5681 277.467 80.8899C277.728 81.2117 278.052 81.4805 278.42 81.6808C278.789 81.8812 279.194 82.0092 279.614 82.0575C280.033 82.1059 280.458 82.0737 280.865 81.9627C281.271 81.8517 281.651 81.6641 281.983 81.4107C282.315 81.1572 282.592 80.8429 282.798 80.4856C283.005 80.1284 283.136 79.7352 283.186 79.3285C283.236 78.9219 283.202 78.5098 283.087 78.1157V78.1158Z" fill="#00BFA6"/>
<path d="M223.864 66.0583C224.877 66.0583 225.699 65.2367 225.699 64.2233C225.699 63.2099 224.877 62.3884 223.864 62.3884C222.851 62.3884 222.029 63.2099 222.029 64.2233C222.029 65.2367 222.851 66.0583 223.864 66.0583Z" fill="#00BFA6"/>
<path d="M216.524 66.0583C217.538 66.0583 218.359 65.2367 218.359 64.2233C218.359 63.2099 217.538 62.3884 216.524 62.3884C215.511 62.3884 214.689 63.2099 214.689 64.2233C214.689 65.2367 215.511 66.0583 216.524 66.0583Z" fill="#00BFA6"/>
<path d="M219.565 68.9347C219.167 69.3678 218.899 69.902 218.788 70.478C217.999 70.3569 217.199 70.3296 216.403 70.3967C216.345 70.3344 216.286 70.2724 216.221 70.2139C215.757 69.792 215.179 69.5152 214.558 69.4182C213.937 69.3212 213.301 69.4081 212.729 69.6683C212.158 69.9284 211.676 70.3501 211.343 70.8809C211.011 71.4117 210.843 72.028 210.861 72.653C210.192 73.2016 209.6 73.8358 209.099 74.5391C209.081 74.5219 209.065 74.5031 209.047 74.4862C208.651 74.1261 208.171 73.8705 207.65 73.7428C207.129 73.6152 206.585 73.6196 206.066 73.7556C205.548 73.8916 205.072 74.155 204.682 74.5214C204.293 74.8879 204.002 75.3458 203.836 75.8532C203.671 76.3605 203.636 76.9011 203.735 77.4253C203.834 77.9496 204.063 78.4407 204.403 78.8537C204.742 79.2667 205.18 79.5884 205.677 79.7892C206.174 79.9901 206.713 80.0637 207.246 80.0033C207.224 80.7054 207.276 81.4079 207.401 82.0992C206.892 82.169 206.407 82.3598 205.987 82.6556C205.567 82.9514 205.225 83.3434 204.99 83.7985C204.754 84.2536 204.633 84.7583 204.635 85.27C204.637 85.7818 204.763 86.2854 205.003 86.7384C205.242 87.1914 205.587 87.5803 206.01 87.8724C206.432 88.1645 206.919 88.3511 207.43 88.4164C207.94 88.4817 208.458 88.4238 208.941 88.2476C209.424 88.0715 209.858 87.7821 210.204 87.4042L210.211 87.3964C210.306 87.4896 210.401 87.5826 210.5 87.6728C211.096 88.2133 211.754 88.6804 212.462 89.0641C212.085 90.0039 211.954 91.0235 212.081 92.0275C212.208 93.0315 212.59 93.9868 213.19 94.8038C213.791 95.6208 214.59 96.2727 215.513 96.6984C216.436 97.124 217.452 97.3094 218.467 97.2372C219.482 97.165 220.461 96.8375 221.314 96.2854C222.167 95.7334 222.864 94.9749 223.342 94.0812C223.819 93.1875 224.06 92.1879 224.042 91.1761C224.025 90.1643 223.749 89.1736 223.241 88.2969C225.06 86.947 226.363 85.022 226.936 82.838C227.431 83.0111 227.961 83.0608 228.48 82.9827C228.998 82.9045 229.49 82.7009 229.911 82.3898C230.332 82.0786 230.669 81.6694 230.894 81.1981C231.119 80.7268 231.224 80.2078 231.201 79.6866C231.177 79.1654 231.025 78.658 230.758 78.209C230.491 77.7599 230.117 77.3829 229.669 77.1111C229.222 76.8393 228.714 76.6809 228.19 76.65C227.666 76.619 227.143 76.7163 226.666 76.9335C226.162 75.5407 225.349 74.2783 224.289 73.239L224.297 73.232C224.581 72.923 224.801 72.5613 224.945 72.1676C225.089 71.7739 225.153 71.3558 225.134 70.9374C225.115 70.5189 225.014 70.1083 224.835 69.7289C224.657 69.3495 224.405 69.0089 224.094 68.7265C223.783 68.4441 223.419 68.2254 223.023 68.083C222.627 67.9406 222.206 67.8773 221.786 67.8966C221.365 67.9159 220.952 68.0176 220.571 68.1957C220.19 68.3738 219.848 68.6249 219.565 68.9347V68.9347Z" fill="#00BFA6"/>
<path d="M264.233 33.0291H229.369V36.699H264.233V33.0291Z" fill="#E6E6E6"/>
</svg>
