<svg width="145" height="146" viewBox="0 0 145 146" fill="none" xmlns="http://www.w3.org/2000/svg">
<path d="M72.4933 145.445C112.53 145.445 144.987 112.886 144.987 72.7227C144.987 32.5591 112.53 0 72.4933 0C32.4564 0 0 32.5591 0 72.7227C0 112.886 32.4564 145.445 72.4933 145.445Z" fill="#00BFA6"/>
<path d="M46.7638 125.852C68.027 125.852 85.2642 102.065 85.2642 72.7227C85.2642 43.3803 68.027 19.5937 46.7638 19.5937C25.5007 19.5937 8.26349 43.3803 8.26349 72.7227C8.26349 102.065 25.5007 125.852 46.7638 125.852Z" fill="#FFD5D8"/>
<path d="M34.0013 100.934C39.9356 100.934 44.7463 93.3428 44.7463 83.9782C44.7463 74.6137 39.9356 67.0222 34.0013 67.0222C28.067 67.0222 23.2564 74.6137 23.2564 83.9782C23.2564 93.3428 28.067 100.934 34.0013 100.934Z" fill="#00BFA6"/>
</svg>
