<svg width="443" height="350" viewBox="0 0 443 350" fill="none" xmlns="http://www.w3.org/2000/svg">
<g clip-path="url(#clip0)">
<path opacity="0.1" d="M412.193 235.928C394.879 248.788 393.387 274.047 396.362 295.41C397.36 302.561 398.613 310.18 395.591 316.736C391.896 324.753 382.727 328.859 373.965 329.977C357.996 332.013 341.202 325.935 330.24 314.147C320.766 303.96 315.737 290.216 305.978 280.301C289.636 263.708 263.795 261.275 240.61 263.357C224.205 264.827 205.956 267.579 192.711 257.79C183.392 250.899 178.883 239.065 177.793 227.529C177.274 221.958 177.374 216.114 174.86 211.125C173.356 208.159 171.009 205.705 168.52 203.497C145.792 183.344 110.724 181.296 89.1397 159.932C74.5618 145.502 68.5278 124.109 68.8588 103.604C69.1899 83.0996 75.2238 63.1394 81.8487 43.7029C86.546 29.9046 92.1986 15.344 104.116 6.9494C116.691 -1.92689 134.139 -1.7719 148.269 4.41092C162.398 10.5938 173.637 21.9792 182.893 34.3113C194.462 49.7265 204.201 67.6551 220.962 77.1764C232.397 83.6818 245.751 85.4453 258.569 88.2896C279.994 93.0356 300.556 101.003 320.933 109.15C340.443 116.946 360.033 125.018 377.439 136.797C389.758 145.12 398.357 156.485 409.583 165.851C416.899 171.955 425.724 175.486 432.311 182.515C440.423 191.173 446.52 204.058 440.691 215.607C435.16 226.578 421.378 229.1 412.193 235.928Z" fill="#00BFA6"/>
<path d="M2.98346 236.539C2.98346 236.539 -17.7877 268.978 50.3042 269.535C50.3042 269.535 51.3057 241.31 29.047 229.682C24.7188 227.411 19.7077 226.805 14.9628 227.98C10.218 229.155 6.06905 232.029 3.30192 236.058L2.98346 236.539Z" fill="#00BFA6"/>
<path d="M3.13855 235.995C3.13855 235.995 38.0142 242.865 50.3043 269.535" stroke="#535461" stroke-miterlimit="10"/>
<path d="M53.3464 265.17C53.3464 265.17 30.9536 236.242 32.9984 207.724C33.8365 195.756 31.0248 183.801 24.5299 173.706C21.4394 168.926 17.9174 164.439 14.0081 160.301" stroke="#535461" stroke-width="2" stroke-miterlimit="10"/>
<path d="M15.1814 142.327C16.7443 146.331 14.0249 160.779 14.0249 160.779C14.0249 160.779 2.23761 151.986 0.67464 147.982C0.262527 147.022 0.0478344 145.989 0.0433458 144.944C0.0388572 143.899 0.244663 142.864 0.648511 141.901C1.05236 140.938 1.646 140.065 2.39408 139.336C3.14216 138.606 4.02939 138.035 5.00296 137.655C5.97654 137.276 7.01654 137.096 8.06107 137.127C9.10559 137.157 10.1333 137.398 11.083 137.833C12.0326 138.269 12.8849 138.892 13.589 139.664C14.2931 140.435 14.8346 141.341 15.1814 142.327Z" fill="#00BFA6"/>
<path d="M35.8394 159.828C34.9762 164.042 24.8358 174.69 24.8358 174.69C24.8358 174.69 19.7153 160.909 20.5785 156.678C20.7618 155.655 21.1481 154.679 21.7145 153.808C22.2808 152.937 23.0159 152.188 23.8763 151.605C24.7367 151.022 25.7051 150.617 26.7244 150.414C27.7437 150.212 28.7934 150.215 29.8115 150.423C30.8297 150.632 31.7957 151.043 32.6528 151.63C33.5098 152.218 34.2405 152.971 34.8018 153.846C35.3632 154.72 35.7438 155.698 35.9213 156.722C36.0988 157.746 36.0695 158.795 35.8352 159.807L35.8394 159.828Z" fill="#00BFA6"/>
<path d="M50.1199 197.947C47.2453 201.147 33.1199 205.223 33.1199 205.223C33.1199 205.223 35.6592 190.742 38.5296 187.542C39.9182 186.037 41.8437 185.14 43.8892 185.044C45.9347 184.948 47.9358 185.661 49.4594 187.029C50.9829 188.396 51.9065 190.309 52.0301 192.352C52.1537 194.396 51.4675 196.405 50.1199 197.947Z" fill="#00BFA6"/>
<path d="M54.4275 229.225C52.1354 232.866 38.8983 239.279 38.8983 239.279C38.8983 239.279 38.9528 224.58 41.2449 220.94C41.7788 220.052 42.4847 219.279 43.321 218.667C44.1574 218.056 45.1075 217.617 46.1157 217.377C47.1239 217.136 48.1698 217.1 49.1923 217.269C50.2148 217.438 51.1933 217.809 52.0705 218.361C52.9476 218.913 53.7058 219.634 54.3005 220.483C54.8953 221.331 55.3147 222.29 55.5342 223.302C55.7537 224.315 55.7689 225.361 55.5789 226.38C55.3888 227.398 54.9974 228.368 54.4275 229.234V229.225Z" fill="#00BFA6"/>
<path d="M9.89321 181.409C13.8572 183.085 28.3765 180.747 28.3765 180.747C28.3765 180.747 19.9205 168.717 15.9565 167.041C15.0128 166.643 13.9999 166.435 12.9757 166.428C11.9514 166.421 10.9359 166.617 9.98709 167.002C9.03826 167.388 8.17471 167.957 7.44574 168.676C6.71678 169.395 6.13668 170.251 5.73855 171.194C5.34043 172.138 5.13208 173.15 5.12541 174.174C5.11874 175.198 5.31387 176.213 5.69967 177.162C6.08546 178.11 6.65436 178.974 7.37389 179.702C8.09342 180.431 8.94949 181.011 9.89321 181.409Z" fill="#00BFA6"/>
<path d="M15.4077 217.924C19.6901 218.343 32.8434 211.762 32.8434 211.762C32.8434 211.762 21.1651 202.831 16.8827 202.421C15.85 202.295 14.8027 202.377 13.8024 202.663C12.8021 202.948 11.8691 203.431 11.0585 204.083C10.2479 204.734 9.5761 205.542 9.08273 206.457C8.58936 207.373 8.28441 208.378 8.18589 209.413C8.08737 210.448 8.19727 211.493 8.5091 212.485C8.82093 213.477 9.32838 214.397 10.0015 215.189C10.6746 215.982 11.4998 216.632 12.4283 217.101C13.3568 217.57 14.3699 217.848 15.4077 217.92V217.924Z" fill="#00BFA6"/>
<path d="M25.6278 252.675C29.7803 253.802 43.8554 249.546 43.8554 249.546C43.8554 249.546 33.8533 238.768 29.7007 237.645C28.7066 237.356 27.6648 237.267 26.6361 237.385C25.6073 237.502 24.6124 237.824 23.7094 238.33C22.8064 238.837 22.0135 239.518 21.3771 240.335C20.7406 241.151 20.2733 242.086 20.0026 243.085C19.7318 244.084 19.6631 245.127 19.8003 246.153C19.9375 247.179 20.2779 248.167 20.8016 249.06C21.3254 249.953 22.022 250.733 22.8506 251.353C23.6793 251.974 24.6234 252.423 25.6278 252.675Z" fill="#00BFA6"/>
<path opacity="0.25" d="M15.1814 142.327C16.7443 146.331 14.0249 160.779 14.0249 160.779C14.0249 160.779 2.23761 151.986 0.67464 147.982C0.262527 147.022 0.0478344 145.989 0.0433458 144.944C0.0388572 143.899 0.244663 142.864 0.648511 141.901C1.05236 140.938 1.646 140.065 2.39408 139.336C3.14216 138.606 4.02939 138.035 5.00296 137.655C5.97654 137.276 7.01654 137.096 8.06107 137.127C9.10559 137.157 10.1333 137.398 11.083 137.833C12.0326 138.269 12.8849 138.892 13.589 139.664C14.2931 140.435 14.8346 141.341 15.1814 142.327Z" fill="black"/>
<path opacity="0.25" d="M35.8394 159.828C34.9762 164.042 24.8358 174.69 24.8358 174.69C24.8358 174.69 19.7153 160.909 20.5785 156.678C20.7618 155.655 21.1481 154.679 21.7145 153.808C22.2808 152.937 23.0159 152.188 23.8763 151.605C24.7367 151.022 25.7051 150.617 26.7244 150.414C27.7437 150.212 28.7934 150.215 29.8115 150.423C30.8297 150.632 31.7957 151.043 32.6528 151.63C33.5098 152.218 34.2405 152.971 34.8018 153.846C35.3632 154.72 35.7438 155.698 35.9213 156.722C36.0988 157.746 36.0695 158.795 35.8352 159.807L35.8394 159.828Z" fill="black"/>
<path opacity="0.25" d="M50.1199 197.947C47.2453 201.147 33.1199 205.223 33.1199 205.223C33.1199 205.223 35.6592 190.742 38.5296 187.542C39.9182 186.037 41.8437 185.14 43.8892 185.044C45.9347 184.948 47.9358 185.661 49.4594 187.029C50.9829 188.396 51.9065 190.309 52.0301 192.352C52.1537 194.396 51.4675 196.405 50.1199 197.947Z" fill="black"/>
<path opacity="0.25" d="M54.4275 229.225C52.1354 232.866 38.8983 239.279 38.8983 239.279C38.8983 239.279 38.9528 224.58 41.2449 220.94C41.7788 220.052 42.4847 219.279 43.321 218.667C44.1574 218.056 45.1075 217.617 46.1157 217.377C47.1239 217.136 48.1698 217.1 49.1923 217.269C50.2148 217.438 51.1933 217.809 52.0705 218.361C52.9476 218.913 53.7058 219.634 54.3005 220.483C54.8953 221.331 55.3147 222.29 55.5342 223.302C55.7537 224.315 55.7689 225.361 55.5789 226.38C55.3888 227.398 54.9974 228.368 54.4275 229.234V229.225Z" fill="black"/>
<path opacity="0.25" d="M9.89321 181.409C13.8572 183.085 28.3765 180.747 28.3765 180.747C28.3765 180.747 19.9205 168.717 15.9565 167.041C15.0128 166.643 13.9999 166.435 12.9757 166.428C11.9514 166.421 10.9359 166.617 9.98709 167.002C9.03826 167.388 8.17471 167.957 7.44574 168.676C6.71678 169.395 6.13668 170.251 5.73855 171.194C5.34043 172.138 5.13208 173.15 5.12541 174.174C5.11874 175.198 5.31387 176.213 5.69967 177.162C6.08546 178.11 6.65436 178.974 7.37389 179.702C8.09342 180.431 8.94949 181.011 9.89321 181.409Z" fill="black"/>
<path opacity="0.25" d="M15.4077 217.924C19.6901 218.343 32.8434 211.762 32.8434 211.762C32.8434 211.762 21.1651 202.831 16.8827 202.421C15.85 202.295 14.8027 202.377 13.8024 202.663C12.8021 202.948 11.8691 203.431 11.0585 204.083C10.2479 204.734 9.5761 205.542 9.08273 206.457C8.58936 207.373 8.28441 208.378 8.18589 209.413C8.08737 210.448 8.19727 211.493 8.5091 212.485C8.82093 213.477 9.32838 214.397 10.0015 215.189C10.6746 215.982 11.4998 216.632 12.4283 217.101C13.3568 217.57 14.3699 217.848 15.4077 217.92V217.924Z" fill="black"/>
<path opacity="0.25" d="M25.6278 252.675C29.7803 253.802 43.8554 249.546 43.8554 249.546C43.8554 249.546 33.8533 238.768 29.7007 237.645C28.7066 237.356 27.6648 237.267 26.6361 237.385C25.6073 237.502 24.6124 237.824 23.7094 238.33C22.8064 238.837 22.0135 239.518 21.3771 240.335C20.7406 241.151 20.2733 242.086 20.0026 243.085C19.7318 244.084 19.6631 245.127 19.8003 246.153C19.9375 247.179 20.2779 248.167 20.8016 249.06C21.3254 249.953 22.022 250.733 22.8506 251.353C23.6793 251.974 24.6234 252.423 25.6278 252.675Z" fill="black"/>
<path opacity="0.1" d="M194.219 209.63C186.258 209.454 177.705 209.852 171.378 212.981C159.645 218.77 161.225 230.511 153.574 238.659C147.112 245.537 134.763 249.11 122.788 251.389C103.278 255.104 82.8166 256.495 63.4408 260.487C52.0181 262.841 40.6792 266.264 32.8518 272.12C25.0243 277.976 21.5129 286.71 26.8052 293.638C31.6995 300.043 42.481 303.47 52.2988 306.787C62.1166 310.105 72.5169 314.457 75.249 321.373C76.77 325.223 75.6387 329.374 77.4153 333.173C80.9184 340.671 94.0382 344.211 105.825 346.125C115.241 347.654 124.812 348.781 134.458 349.476C142.163 350.042 150.045 350.339 157.609 349.238C164.158 348.283 170.222 346.305 176.503 344.785C216.411 335.071 262.311 343.474 303.016 335.247C310.424 333.76 317.711 331.665 323.326 328.239C327.516 325.692 330.617 322.508 333.227 319.207C339.873 310.83 343.515 301.434 343.795 292.013C343.963 286.366 342.957 280.661 344.503 275.098C346.125 269.309 350.454 263.985 352.758 258.292C356.949 247.946 354.015 236.51 344.893 227.558C341.637 224.259 337.645 221.778 333.244 220.32C329.557 219.139 325.434 218.686 321.373 218.225C310.059 216.998 298.599 215.766 287.185 216.458C279.064 216.952 271.115 218.414 262.969 218.678C251.538 219.051 242.583 216.416 232.221 213.94C220.299 211.117 206.886 209.906 194.219 209.63Z" fill="#00BFA6"/>
<path d="M50.3419 123.996V236.037L199.465 207.079L196.616 121.147L50.3419 123.996Z" fill="#DBACA2"/>
<path d="M330.659 256.097V293.127L172.987 339.18L171.378 338.346L46.6629 273.661V120.553L201.007 115.568L201.959 200.548L195.782 202.45L193.406 122.965L57.5828 127.674L56.6358 242.802L174.885 294.551L174.977 294.53L330.659 256.097Z" fill="#E8C2B8"/>
<path opacity="0.1" d="M330.659 256.097V293.127L172.987 339.18L171.378 338.346L174.977 294.53L330.659 256.097Z" fill="black"/>
<path d="M140.575 202.328C140.575 202.328 64.2369 209.944 56.8244 220.973C49.4118 232.003 56.7615 245.533 56.7615 245.533L174.776 296.805L334.82 255.502C334.82 255.502 330.546 226.54 317.25 223.219C303.954 219.897 198.037 197.109 198.037 197.109C198.037 197.109 155.296 194.495 140.575 202.328Z" fill="#EBECF0"/>
<path d="M56.7531 221.078L177.144 262.619C177.144 262.619 305.555 223.696 323.745 227.361C323.745 227.361 233.918 195.22 198.037 196.619C169.442 197.733 139.503 202.425 139.503 202.425C139.503 202.425 60.0802 210.4 56.7531 221.078Z" fill="#F8F9FA"/>
<path d="M241.984 247.803L242.013 247.761V247.736L242.034 247.694V247.665V247.623V247.594V247.548V247.518V247.464V247.439C242.034 247.414 242.034 247.388 242.034 247.363C242.034 247.334 242.034 247.305 242.034 247.275C242.034 247.246 242.034 247.275 242.034 247.246C242.034 247.217 242.034 247.204 242.034 247.183V247.146V247.083V247.041V246.978V246.936V246.869V246.827V246.756V246.718L242.001 246.614L241.959 246.496V246.459L241.925 246.375V246.329L241.892 246.249L241.871 246.199L241.837 246.119L241.812 246.065L241.775 245.985L241.749 245.935L241.703 245.847L241.678 245.801L241.615 245.679L241.54 245.537L241.515 245.491L241.46 245.39L241.431 245.336L241.377 245.244L241.343 245.185L241.289 245.093L241.196 244.955L241.138 244.863L241.1 244.804L241.037 244.703L241.004 244.649L240.92 244.515V244.49L240.815 244.331L240.782 244.285L240.706 244.171L240.664 244.113L240.593 244.012L240.551 243.949L240.48 243.849L240.434 243.782L240.358 243.698L240.312 243.635L240.233 243.526L240.191 243.472L240.086 243.329V243.308L239.964 243.141L239.923 243.082L239.843 242.973L239.788 242.902L239.713 242.802L239.659 242.73L239.583 242.63L239.529 242.563L239.449 242.458L239.395 242.391L239.311 242.282L239.26 242.219L239.16 242.094L239.126 242.052C238.749 241.574 238.36 241.097 237.97 240.636C236.871 239.33 235.525 238.253 234.009 237.468C232.494 236.682 230.838 236.203 229.137 236.058C228.789 236.028 228.424 235.99 228.056 235.944H227.901L227.628 235.907H227.498L227.079 235.848L226.681 235.785L226.543 235.76L226.262 235.71L226.095 235.676L225.839 235.626L225.659 235.588L225.416 235.534L225.231 235.492L224.988 235.433L224.8 235.387L224.561 235.324L224.372 235.274L224.134 235.207C222.877 233.339 220.966 231.676 219.105 231.353C218.593 231.274 218.069 231.301 217.567 231.433L217.479 231.337L217.354 231.194L217.186 230.981L217.077 230.838L216.901 230.591L216.813 230.469C216.727 230.344 216.644 230.215 216.566 230.084C216.319 229.974 216.06 229.891 215.795 229.837C219.503 229.276 223.159 228.414 226.727 227.261C226.9 227.195 227.065 227.11 227.218 227.005L227.293 226.98C230.398 225.849 234.211 214.832 231.529 213.291C228.848 211.749 224.754 199.049 222.353 192.543C219.952 186.038 213.034 185.347 213.034 185.347C213.034 185.347 203.01 177.585 198.493 178.431C193.976 179.277 193.268 172.503 192.845 172.223C192.795 172.182 192.754 172.132 192.723 172.076C191.634 170.371 182.973 168.097 178.3 166.974C173.733 163.665 168.286 161.097 163.882 160.037C162.41 159.639 160.867 159.587 159.372 159.885C157.878 160.183 156.472 160.823 155.266 161.755C146.014 162.224 144.539 169.211 144.539 169.211C144.508 170.164 144.673 171.114 145.025 172.001C144.526 172.008 144.026 171.981 143.529 171.921C144.602 170.149 144.636 167.87 145.436 165.923C147.016 162.069 151.374 160.079 155.493 159.56C157.894 159.258 160.521 159.258 162.415 157.754C163.39 156.975 164.055 155.875 164.292 154.65C164.369 154.386 164.345 154.102 164.225 153.854C164.108 153.694 163.95 153.567 163.768 153.486C161.288 152.162 158.3 152.506 155.484 152.443C150.909 152.342 146.45 151.09 142.025 149.929C140.152 149.439 138.128 148.966 136.318 149.661C134.608 150.315 133.443 151.873 132.073 153.084C126.458 158.035 117.135 157.319 112.14 162.898C110.984 164.193 110.116 165.948 110.539 167.632C110.711 168.319 111.093 168.951 111.214 169.651C111.457 171.033 110.669 172.357 110.003 173.593C109.337 174.828 108.746 176.328 109.375 177.585C110.326 179.503 113.23 179.361 114.738 180.881C115.438 181.589 115.777 182.603 116.506 183.277C117.675 184.354 119.473 184.27 121.057 184.115C121.681 184.056 122.616 183.885 122.959 183.336C124.185 184.488 125.661 185.34 127.271 185.825C128.882 186.309 130.583 186.414 132.241 186.129C133.898 185.845 135.467 185.18 136.824 184.187C138.181 183.193 139.289 181.898 140.06 180.404C143.473 180.173 146.866 181.09 149.698 183.009C150.124 184.266 150.907 185.373 151.952 186.193C152.941 186.968 154.118 187.919 155.304 188.936C152.3 189.728 149.63 190.235 149.63 190.235C149.63 190.235 137.772 194.047 137.772 196.585C137.814 197.045 137.957 197.49 138.191 197.888C137.891 198.519 137.721 199.205 137.692 199.903C134.42 199.35 131.801 198.517 130.447 197.289C130.447 197.289 130.062 197.184 129.467 197.067C128.671 196.049 126.333 193.222 124.941 193.335C124.015 193.41 123.684 195.563 123.567 197.49C123.445 197.596 123.338 197.717 123.249 197.85C121.836 199.966 124.38 204.201 126.073 204.909C127.766 205.617 137.085 205.328 143.437 209.99C146.253 212.055 151.093 212.453 155.589 212.26C151.068 215.452 144.736 220.357 143.856 223.399C143.383 225.011 142.825 227.014 142.859 229.07C140.093 232.727 135.907 240.447 146.257 244.15C154.789 247.196 177.919 246.806 194.399 246.061C202.068 247.414 208.399 248.775 211.056 250.078C211.056 250.078 217.408 250.916 219.952 252.478C222.495 254.04 227.151 253.609 227.151 253.609C227.151 253.609 236.185 255.163 238.163 257.136C240.14 259.109 243.526 253.747 239.294 251.209C237.643 250.22 235.183 248.591 232.799 246.806C235.862 247.166 238.565 247.56 240.283 247.962L240.455 248H240.509H240.618H240.681H240.773H240.832H240.92H241.339H241.448H241.481H241.548H241.586H241.641H241.674H241.724H241.758L241.804 247.979H241.833L241.875 247.95H241.896L241.951 247.904L241.984 247.803ZM202.985 234.273C202.985 234.273 201.795 234.001 200.019 233.582L196.49 232.158C196.49 232.158 202.512 230.264 208.089 227.856C209.686 228.555 211.089 229.112 211.441 229.619C211.593 229.787 211.799 229.896 212.024 229.925C209.929 230.444 207.238 231.781 204.083 234.864C203.7 234.7 203.333 234.502 202.985 234.273ZM160.353 200.259L163.836 198.642C164.594 199.287 165.407 199.899 166.203 200.494C164.292 200.607 161.724 200.732 158.82 200.812C159.708 200.515 160.353 200.259 160.353 200.259Z" fill="url(#paint0_linear)"/>
<path d="M130.682 197.561C130.682 197.561 127.64 193.431 125.985 193.557C124.33 193.683 124.602 200.603 124.602 200.603L130.682 197.561Z" fill="#FFD5D8"/>
<path d="M169.794 200.326C169.794 200.326 137.454 202.953 131.374 197.423C131.374 197.423 125.708 195.903 124.325 197.976C122.943 200.05 125.432 204.193 127.091 204.884C128.75 205.575 137.873 205.303 144.091 209.856C150.309 214.409 166.618 210.694 166.618 210.694L173.389 208.067L169.794 200.326Z" fill="#FF7C5E"/>
<path opacity="0.05" d="M169.794 200.326C169.794 200.326 137.454 202.953 131.374 197.423C131.374 197.423 125.708 195.903 124.325 197.976C122.943 200.05 125.432 204.193 127.091 204.884C128.75 205.575 137.873 205.303 144.091 209.856C150.309 214.409 166.618 210.694 166.618 210.694L173.389 208.067L169.794 200.326Z" fill="black"/>
<path d="M216.092 215.8C216.092 215.8 209.183 210.828 194.948 217.057C180.714 223.286 145.197 226.591 145.197 226.591C145.197 226.591 133.314 238.47 146.873 243.309C160.433 248.147 211.55 244.146 211.55 244.146C211.55 244.146 232.418 245.529 238.913 247.049C242.843 247.971 239.751 243.522 236.671 239.869C235.596 238.59 234.278 237.535 232.794 236.766C231.31 235.997 229.688 235.528 228.022 235.387C223.941 235.04 218.28 233.758 215.69 229.502C215.69 229.502 210.716 227.014 203.253 234.474L196.055 231.55C196.055 231.55 215.816 225.334 216.507 221.187C217.199 217.04 216.092 215.8 216.092 215.8Z" fill="#FFD5D8"/>
<path opacity="0.05" d="M216.093 215.8C216.093 215.8 209.183 210.828 194.948 217.057C180.714 223.286 145.197 226.591 145.197 226.591C145.197 226.591 133.314 238.47 146.873 243.309C160.433 248.147 211.55 244.146 211.55 244.146C211.55 244.146 232.418 245.529 238.913 247.049C242.357 247.854 240.4 244.536 237.807 241.26C236.513 239.615 234.907 238.241 233.08 237.219C231.253 236.197 229.243 235.546 227.163 235.304C223.182 234.851 218.104 233.465 215.694 229.502C215.694 229.502 210.721 227.014 203.258 234.474L196.055 231.55C196.055 231.55 215.816 225.334 216.507 221.187C217.199 217.04 216.093 215.8 216.093 215.8Z" fill="black"/>
<path d="M216.231 196.183C216.231 196.183 207.523 182.36 186.932 194.386L160.534 209.047C160.534 209.047 145.868 218.305 144.502 223.001C143.136 227.696 141.045 235.71 155.421 238.751C169.798 241.792 203.241 245.658 210.289 249.114C210.289 249.114 216.507 249.952 218.996 251.464C221.485 252.977 226.044 252.57 226.044 252.57C226.044 252.57 234.89 254.091 236.826 256.026C238.762 257.961 242.076 252.708 237.932 250.224C233.788 247.74 224.389 241.105 224.523 238.495C224.657 235.886 221.343 231.274 218.15 230.712C214.957 230.151 210.825 234.855 210.825 234.855C210.825 234.855 205.575 235.693 202.394 233.599C202.394 233.599 186.086 229.866 184.427 228.765C182.767 227.663 171.437 223.378 171.437 223.378C171.437 223.378 198.254 223.101 206.124 215.917C206.124 215.917 209.166 213.706 211.651 214.397C211.672 214.418 223.97 209.722 216.231 196.183Z" fill="#FFD5D8"/>
<path d="M137.868 170.208C137.868 170.208 145.746 175.733 151.826 170.208C157.906 164.683 154.458 187.202 154.458 187.202C154.458 187.202 146.027 176.01 133.452 183.336L137.868 170.208Z" fill="#FFD5D8"/>
<path opacity="0.05" d="M137.868 170.208C137.868 170.208 145.746 175.733 151.826 170.208C157.906 164.683 154.458 187.202 154.458 187.202C154.458 187.202 146.027 176.01 133.452 183.336L137.868 170.208Z" fill="black"/>
<path d="M104.149 217.597C104.149 217.597 112.442 210.551 117.139 210.413C118.539 210.371 120.156 208.947 121.748 206.97C123.76 204.472 126.413 202.567 129.424 201.461C132.434 200.354 135.689 200.086 138.841 200.686C141.514 201.181 144.803 201.168 148.797 200.18C163.308 196.585 156.121 187.613 156.121 187.613L151.562 183.746C151.562 183.746 145.344 179.465 142.993 179.742C140.642 180.018 134.562 186.235 133.871 185.544C133.179 184.852 124.749 178.636 123.366 176.977C121.983 175.318 110.921 169.931 113.686 168.411C116.452 166.89 130.406 161.227 127.64 160.121C124.874 159.015 109.949 157.356 104.145 164.264C98.3415 171.171 101.241 213.588 104.149 217.597Z" fill="#F8F9FA"/>
<path opacity="0.05" d="M104.149 217.597C104.149 217.597 112.442 210.551 117.139 210.413C118.539 210.371 120.156 208.947 121.748 206.97C123.76 204.472 126.413 202.567 129.424 201.461C132.434 200.354 135.689 200.086 138.841 200.686C141.514 201.181 144.803 201.168 148.797 200.18C163.308 196.585 156.121 187.613 156.121 187.613L151.562 183.746C151.562 183.746 145.344 179.465 142.993 179.742C140.642 180.018 134.562 186.235 133.871 185.544C133.179 184.852 124.749 178.636 123.366 176.977C121.983 175.318 110.921 169.931 113.686 168.411C116.452 166.89 130.406 161.227 127.64 160.121C124.874 159.015 109.949 157.356 104.145 164.264C98.3415 171.171 101.241 213.588 104.149 217.597Z" fill="black"/>
<path d="M104.702 216.629C104.702 216.629 112.995 209.584 117.692 209.445C119.092 209.403 120.709 207.979 122.302 206.002C124.311 203.507 126.96 201.604 129.967 200.497C132.973 199.389 136.224 199.119 139.373 199.715C142.046 200.209 145.336 200.196 149.329 199.208C163.84 195.614 156.653 186.641 156.653 186.641L152.094 182.775C152.094 182.775 145.876 178.494 143.525 178.77C141.175 179.046 135.094 185.263 134.403 184.572C133.712 183.88 125.281 177.664 123.898 176.005C122.515 174.347 111.474 168.964 114.231 167.46C116.988 165.956 130.954 160.276 128.189 159.17C125.423 158.064 110.498 156.405 104.694 163.313C98.8905 170.22 101.799 212.621 104.702 216.629Z" fill="#F8F9FA"/>
<path d="M145.193 169.931C145.193 169.931 147.405 159.43 163.576 163.577C179.746 167.724 187.762 176.701 187.762 176.701L173.096 183.47L155.128 177.392C155.128 177.392 145.059 177.513 145.193 169.931Z" fill="#FFD5D8"/>
<path opacity="0.05" d="M174.772 167.305C174.772 167.305 190.322 170.656 191.789 172.964C191.82 173.019 191.861 173.067 191.91 173.107C192.329 173.383 193.017 180.014 197.437 179.185C201.858 178.355 211.684 185.954 211.684 185.954C211.684 185.954 218.456 186.645 220.807 193C223.157 199.354 227.163 211.791 229.79 213.308C232.418 214.824 228.684 225.602 225.646 226.712C222.608 227.822 211.688 230.444 210.721 229.062C209.753 227.68 201.322 226.159 201.875 221.74C202.428 217.32 205.742 213.173 203.132 210.547C200.521 207.921 198.849 201.013 194.978 199.631C191.106 198.248 184.196 197.834 180.052 200.598C175.908 203.363 170.9 203.485 170.9 203.485C170.9 203.485 162.331 198.512 160.948 195.056C160.018 192.727 155.384 188.832 152.459 186.54C151.692 185.939 151.066 185.178 150.624 184.309C150.182 183.441 149.934 182.487 149.899 181.514C149.777 178.104 149.668 173.077 150.029 172.265C150.582 171.008 158.183 163.56 158.183 163.56L174.772 167.305Z" fill="black"/>
<path d="M175.325 167.041C175.325 167.041 190.875 170.392 192.342 172.7C192.373 172.755 192.414 172.803 192.463 172.843C192.883 173.119 193.57 179.75 197.99 178.921C202.411 178.091 212.237 185.69 212.237 185.69C212.237 185.69 219.009 186.381 221.36 192.736C223.71 199.09 227.716 211.527 230.344 213.044C232.971 214.56 229.237 225.338 226.199 226.448C223.161 227.558 212.242 230.18 211.274 228.798C210.306 227.416 201.875 225.895 202.428 221.476C202.981 217.057 206.296 212.91 203.685 210.283C201.074 207.657 199.403 200.749 195.531 199.367C191.659 197.985 184.749 197.57 180.605 200.335C176.461 203.099 171.001 203.581 171.001 203.581C171.001 203.581 162.918 198.261 161.535 194.809C160.605 192.48 155.97 188.585 153.046 186.293C152.279 185.692 151.653 184.93 151.211 184.062C150.769 183.194 150.521 182.24 150.485 181.267C150.364 177.857 150.255 172.83 150.615 172.018C151.168 170.761 158.769 163.313 158.769 163.313L175.325 167.041Z" fill="#FF7C5E"/>
<path d="M139.528 197.008C139.389 197.147 137.039 200.603 139.804 202.534C140.57 203.095 141.453 203.472 142.388 203.637C143.322 203.802 144.282 203.75 145.193 203.485L139.528 197.008Z" fill="#FFD5D8"/>
<path opacity="0.1" d="M152.782 166.89C152.782 166.89 156.515 159.43 164.514 161.365C172.514 163.3 184.137 170.346 186.903 177.392C189.669 184.438 176.427 193.012 176.427 193.012L160.672 200.334C160.672 200.334 155.836 202.27 154.453 201.591C153.071 200.913 146.437 206.836 146.437 206.836C146.437 206.836 138.975 199.652 138.975 197.163C138.975 194.675 150.586 190.918 150.586 190.918C150.586 190.918 164.414 188.291 164.267 185.669C164.267 185.669 166.618 182.904 165.373 182.075C164.129 181.246 150.791 177.308 150.791 177.308C150.791 177.308 150.309 168.549 152.782 166.89Z" fill="black"/>
<path d="M152.363 166.476C152.363 166.476 156.096 159.015 164.095 160.95C172.095 162.886 183.718 169.931 186.484 176.977C189.25 184.023 176.012 192.593 176.012 192.593L160.257 199.916C160.257 199.916 155.421 201.851 154.039 201.172C152.656 200.494 146.023 206.417 146.023 206.417C146.023 206.417 138.56 199.233 138.56 196.745C138.56 194.256 150.171 190.499 150.171 190.499C150.171 190.499 163.999 187.873 163.852 185.25C163.852 185.25 166.203 182.486 164.959 181.656C163.714 180.827 150.376 176.889 150.376 176.889C150.376 176.889 149.895 168.134 152.363 166.476Z" fill="#FF7C5E"/>
<path opacity="0.1" d="M134.692 181.949C136.934 180.584 139.458 179.749 142.071 179.507C142.83 178.045 140.839 176.454 140.839 174.694C140.839 173.22 140.278 172.658 139.733 171.377C137.755 170.66 139.113 168.821 139.113 168.821L134.692 181.949Z" fill="black"/>
<path d="M131.374 186.649C137.252 186.649 142.017 181.886 142.017 176.009C142.017 170.133 137.252 165.37 131.374 165.37C125.495 165.37 120.73 170.133 120.73 176.009C120.73 181.886 125.495 186.649 131.374 186.649Z" fill="#FFD5D8"/>
<path d="M123.395 180.374C125.771 178.54 128.863 177.924 131.855 177.656C133.724 177.488 135.627 177.43 137.42 176.86C138.451 176.5 139.452 176.058 140.412 175.536C141.694 174.883 143.018 174.196 143.894 173.052C145.26 171.268 145.218 168.796 146.073 166.714C147.619 162.944 151.885 160.992 155.933 160.485C158.283 160.188 160.852 160.188 162.712 158.718C163.667 157.956 164.319 156.879 164.552 155.681C164.627 155.422 164.603 155.144 164.485 154.902C164.37 154.744 164.215 154.62 164.037 154.541C161.606 153.247 158.681 153.582 155.928 153.519C151.449 153.423 147.083 152.191 142.75 151.056C140.915 150.574 138.933 150.114 137.164 150.792C135.488 151.433 134.353 152.958 133.008 154.143C127.51 158.994 118.384 158.29 113.494 163.753C112.362 165.009 111.512 166.739 111.926 168.386C112.098 169.06 112.467 169.676 112.588 170.363C112.827 171.716 112.056 173.014 111.403 174.221C110.749 175.427 110.179 176.902 110.787 178.129C111.721 180.006 114.558 179.867 116.037 181.355C116.724 182.046 117.051 183.03 117.768 183.7C118.916 184.756 120.671 184.672 122.222 184.538C123.06 184.459 124.43 184.182 124.191 183.059C123.99 182.054 122.662 181.623 123.395 180.374Z" fill="#E65050"/>
<path d="M119.678 186.729C119.678 186.729 126.936 181.283 131.495 183.068C136.054 184.852 137.299 185.833 140.202 184.743C143.106 183.654 144.347 186.955 144.347 186.955L126.261 192.175L119.678 186.729Z" fill="#F8F9FA"/>
<path opacity="0.05" d="M109.886 196.25C109.886 196.25 113.204 187.684 117.21 186.025L109.886 196.25Z" fill="black"/>
<path opacity="0.05" d="M105.599 193.486C105.599 193.486 108.918 184.919 112.924 183.26L105.599 193.486Z" fill="black"/>
<path opacity="0.05" d="M183.27 195.559C183.27 195.559 195.003 189.896 202.893 190.449C210.783 191.002 212.154 186.029 212.154 186.029" fill="black"/>
<path d="M132.513 336.96C131.537 336.051 130.619 334.979 130.334 333.676C130.049 332.373 130.607 330.806 131.855 330.325C133.251 329.789 134.747 330.744 135.878 331.736C137.009 332.729 138.308 333.831 139.788 333.621C139.026 332.931 138.456 332.054 138.133 331.078C137.811 330.102 137.747 329.059 137.948 328.05C138.013 327.634 138.19 327.243 138.459 326.919C139.234 326.081 140.642 326.446 141.568 327.099C144.502 329.194 145.34 333.186 145.361 336.797C145.658 335.494 145.407 334.137 145.415 332.8C145.423 331.464 145.788 329.985 146.915 329.265C147.617 328.888 148.407 328.703 149.203 328.729C150.531 328.678 152.011 328.813 152.916 329.784C154.043 330.991 153.754 333.014 152.769 334.342C151.784 335.67 150.297 336.503 148.927 337.421C147.827 338.076 146.888 338.971 146.182 340.039C146.098 340.188 146.029 340.345 145.977 340.508H137.659C135.791 339.563 134.06 338.369 132.513 336.96Z" fill="#00BFA6"/>
<path d="M324.65 299.616C324.002 299.087 323.53 298.374 323.296 297.572C323.12 296.759 323.468 295.787 324.243 295.477C325.111 295.146 326.041 295.745 326.758 296.357C327.474 296.968 328.266 297.66 329.188 297.53C328.714 297.1 328.36 296.556 328.159 295.948C327.959 295.341 327.919 294.693 328.044 294.066C328.084 293.806 328.194 293.563 328.363 293.362C328.844 292.847 329.72 293.069 330.298 293.475C332.134 294.765 332.645 297.245 332.658 299.503C332.842 298.694 332.687 297.848 332.691 297.019C332.695 296.189 332.922 295.268 333.625 294.824C334.062 294.588 334.554 294.473 335.05 294.489C335.888 294.459 336.793 294.543 337.359 295.146C338.059 295.896 337.879 297.153 337.267 297.978C336.655 298.803 335.729 299.323 334.878 299.892C334.195 300.3 333.612 300.857 333.173 301.522C333.122 301.614 333.08 301.711 333.047 301.811H327.847C326.687 301.226 325.612 300.488 324.65 299.616Z" fill="#00BFA6"/>
<path d="M105.479 57H105.241C95.7763 57 87.4059 62.0283 82.5911 69.4482C77.7763 62.0283 69.4059 57 59.9413 57H59.7034C52.6004 57.068 45.8112 59.9476 40.811 65.0131C35.8108 70.0786 33.0039 76.9206 33 84.0523C33 92.9084 36.8633 105.474 44.3963 115.815C58.7487 135.517 82.5911 152.755 82.5911 152.755C82.5911 152.755 106.434 135.52 120.783 115.815C128.319 105.474 132.179 92.9084 132.179 84.0523C132.175 76.9212 129.369 70.0796 124.369 65.0142C119.37 59.9488 112.581 57.0688 105.479 57ZM102.076 117.33C100.998 117.326 99.9461 116.995 99.0591 116.38C98.1721 115.765 97.491 114.895 97.1053 113.885H91.4468C91.0742 113.882 90.7116 113.763 90.4096 113.544C90.1077 113.325 89.8815 113.016 89.7626 112.662L88.0244 107.404L82.5245 126.699C82.4174 127.071 82.1932 127.397 81.8855 127.63C81.5778 127.862 81.2032 127.988 80.8181 127.989H80.7071C80.3052 127.969 79.9222 127.812 79.622 127.543C79.3218 127.274 79.1226 126.91 79.0577 126.511L73.3897 92.2843L69.2473 112.538C69.1524 112.922 68.9318 113.264 68.6208 113.508C68.3097 113.752 67.9262 113.885 67.5314 113.885H59.5607C59.3217 113.895 59.0832 113.856 58.8595 113.772C58.6357 113.687 58.4314 113.557 58.2587 113.391C58.0861 113.225 57.9487 113.026 57.8549 112.805C57.761 112.584 57.7126 112.346 57.7126 112.106C57.7126 111.866 57.761 111.628 57.8549 111.408C57.9487 111.187 58.0861 110.987 58.2587 110.821C58.4314 110.655 58.6357 110.526 58.8595 110.441C59.0832 110.356 59.3217 110.317 59.5607 110.328H66.1358L72.0036 83.097C72.1 82.6944 72.3326 82.3379 72.6617 82.0884C72.9909 81.8389 73.3961 81.712 73.8082 81.7293C74.2202 81.7466 74.6134 81.9071 74.9207 82.1833C75.228 82.4594 75.4301 82.8342 75.4926 83.2435L81.2812 118.158L86.2101 100.895C86.3128 100.532 86.5298 100.211 86.8287 99.9815C87.1277 99.7519 87.4926 99.6256 87.869 99.6213H87.9039C88.2767 99.6215 88.6399 99.7397 88.9417 99.9593C89.2436 100.179 89.4687 100.489 89.5849 100.844L92.7282 110.337H97.0355C97.3418 109.403 97.8991 108.572 98.646 107.936C99.393 107.3 100.301 106.883 101.268 106.732C102.236 106.581 103.227 106.701 104.131 107.08C105.035 107.458 105.817 108.08 106.392 108.877C106.966 109.674 107.31 110.614 107.385 111.595C107.461 112.575 107.265 113.558 106.819 114.433C106.374 115.309 105.696 116.044 104.86 116.558C104.025 117.071 103.065 117.343 102.085 117.343L102.076 117.33Z" fill="#00BFA6"/>
<path d="M353.042 180.04L351.946 184.71C351.946 184.71 343.164 180.228 341.581 174.533C339.997 168.837 344.23 166.675 344.23 166.675L352.413 170.142L353.042 180.04Z" fill="white"/>
<path opacity="0.1" d="M353.042 180.04L351.946 184.71C351.946 184.71 343.164 180.228 341.581 174.533C339.997 168.837 344.23 166.675 344.23 166.675L352.413 170.142L353.042 180.04Z" fill="black"/>
<path d="M359.235 334.887C359.255 335.131 359.231 335.377 359.164 335.612C359.164 335.612 341.794 338.511 338.241 335.612C337.239 334.766 336.071 334.138 334.812 333.769C333.554 333.4 332.232 333.298 330.931 333.47C330.931 333.47 324.211 333.653 323.089 331.44C322.622 330.511 322.744 328.709 323.033 326.932C323.328 325.268 323.721 323.622 324.211 322.003L324.48 321.79L326.079 320.506L344.799 319.953H344.941C344.849 323.78 351.296 328.171 351.296 328.171C358.143 330.709 359.154 333.577 359.235 334.887Z" fill="white"/>
<path opacity="0.1" d="M359.235 334.887C359.252 335.131 359.227 335.377 359.159 335.612C359.159 335.612 341.794 338.511 338.241 335.612C337.239 334.766 336.072 334.139 334.815 333.77C333.557 333.401 332.236 333.299 330.936 333.47C330.936 333.47 324.211 333.653 323.094 331.44C322.627 330.506 322.744 328.709 323.033 326.932C325.622 327.191 329.708 327.836 331.312 329.374C333.738 331.714 337.85 334.049 340.372 334.232C342.347 334.359 354.159 334.734 359.235 334.887Z" fill="black"/>
<path opacity="0.1" d="M344.946 320.486C344.946 320.486 340.378 320.389 337.941 322.542C335.505 324.694 323.728 323.009 324.236 322.542C324.386 322.31 324.477 322.045 324.5 321.77L326.099 320.486L344.819 319.932C344.89 320.273 344.946 320.486 344.946 320.486Z" fill="black"/>
<path opacity="0.1" d="M339.317 260.669C335.708 261.608 330.134 262.664 325.145 262.004L325.074 258.786L338.687 256.055C338.687 256.055 339.063 258.567 339.317 260.669Z" fill="black"/>
<path d="M348.21 180.68C348.21 180.68 349.144 182.081 348.21 182.735C347.276 183.39 348.301 184.974 348.301 184.974C348.301 184.974 345.971 186.34 346.997 187.568C348.022 188.796 347.372 194.345 347.372 194.345L344.57 198.984C344.57 198.984 344.738 201.974 344.748 206.015C344.748 212.319 344.377 221.182 342.327 225.222L342.611 258.375C342.611 258.375 332.799 261.958 324.586 260.867L323.368 207.669C323.368 207.669 325.145 177.502 325.799 171.715C326.183 168.711 326.339 165.682 326.266 162.654C326.266 162.654 325.987 153.599 325.048 149.396C325.048 149.396 324.033 131.188 323.932 126.147C323.886 123.736 324.013 116.7 324.155 110.01C324.312 102.695 324.49 95.797 324.49 95.797L322.637 81.1372C322.637 81.1372 324.49 80.9494 325.048 81.6956C325.298 81.9293 325.57 82.1383 325.86 82.32C329.058 84.4824 340.357 91.1321 340.357 91.1321C340.357 91.1321 346.611 93.6194 348.108 97.1828C349.606 100.746 350.646 103.274 351.372 104.289C352.098 105.305 352.494 110.076 352.494 110.076C352.494 110.076 354.646 118.858 356.326 120.345C358.006 121.832 359.235 131.294 359.235 131.294L344.388 142.969C344.388 142.969 343.083 162.39 342.804 163.142C342.525 163.893 348.21 180.68 348.21 180.68Z" fill="white"/>
<path d="M348.773 180.68C348.773 180.68 349.702 182.081 348.773 182.735C347.844 183.39 348.859 184.974 348.859 184.974C348.859 184.974 346.545 186.355 347.56 187.583C348.575 188.812 347.936 194.36 347.936 194.36L345.134 198.999C345.134 198.999 345.301 201.989 345.316 206.03C345.316 212.334 344.946 221.197 342.895 225.238L343.174 258.39C343.174 258.39 333.347 261.973 325.145 260.882L323.932 207.685C323.932 207.685 325.708 177.517 326.363 171.73C326.747 168.726 326.901 165.697 326.825 162.67C326.825 162.67 326.546 153.614 325.612 149.411C325.612 149.411 324.596 131.203 324.49 126.162C324.444 123.751 324.576 116.716 324.713 110.025C324.871 102.711 325.048 95.8123 325.048 95.8123L322.602 80.9545C322.602 80.9545 325.048 80.9545 325.612 81.7108C325.859 81.9472 326.132 82.1565 326.424 82.3352C329.622 84.4976 340.926 91.1473 340.926 91.1473C340.926 91.1473 347.174 93.6346 348.672 97.198C350.169 100.761 351.21 103.289 351.941 104.305C352.672 105.32 353.057 110.091 353.057 110.091C353.057 110.091 355.21 118.873 356.89 120.36C358.57 121.848 359.783 131.289 359.783 131.289L344.936 142.964C344.936 142.964 343.631 162.385 343.347 163.137C343.063 163.888 348.773 180.68 348.773 180.68Z" fill="white"/>
<path opacity="0.1" d="M330.992 100.122L332.332 104.03L325.277 111.137C325.434 103.827 325.612 96.9239 325.612 96.9239L323.165 82.0662C323.165 82.0662 325.612 82.0662 326.175 82.8225C326.422 83.0582 326.694 83.2659 326.987 83.4418L332.987 100.751L330.992 100.122Z" fill="black"/>
<path d="M330.429 99L331.774 102.909L324.718 110.015C324.876 102.701 325.053 95.8021 325.053 95.8021L322.602 80.9443C322.602 80.9443 325.053 80.9443 325.612 81.7007C325.861 81.9357 326.133 82.1448 326.424 82.325L332.429 99.6295L330.429 99Z" fill="white"/>
<path opacity="0.1" d="M346.997 188.147C348.012 189.38 347.372 194.918 347.372 194.918L344.57 199.558C344.57 199.558 344.738 202.553 344.748 206.588L340.038 208.06C339.612 208.193 339.16 208.222 338.721 208.145C338.282 208.068 337.867 207.888 337.512 207.618C337.157 207.348 336.871 206.997 336.679 206.595C336.487 206.192 336.394 205.75 336.408 205.304L337.22 179.106L348.21 183.309C347.276 183.959 348.301 185.553 348.301 185.553C348.301 185.553 345.971 186.913 346.997 188.147Z" fill="black"/>
<path d="M347.56 187.583C348.575 188.817 347.936 194.36 347.936 194.36L345.134 198.999C345.134 198.999 345.301 201.989 345.317 206.03L340.52 207.527C340.103 207.657 339.661 207.685 339.231 207.609C338.801 207.533 338.395 207.356 338.048 207.092C337.7 206.828 337.421 206.484 337.233 206.09C337.045 205.696 336.953 205.263 336.967 204.827L337.784 178.548L348.778 182.751C347.839 183.4 348.865 184.989 348.865 184.989C348.865 184.989 346.545 186.355 347.56 187.583Z" fill="white"/>
<path d="M351.2 175.096C351.2 175.096 350.453 179.862 348.585 180.142C346.717 180.421 345.88 187.852 344.017 187.588C342.154 187.324 343.388 180.68 343.454 179.39C343.52 178.101 341.423 172.761 342.992 171.548C344.56 170.335 349.524 171.548 349.524 171.548L351.2 175.096Z" fill="#CF6F80"/>
<path opacity="0.1" d="M355.174 138.391L358.697 131.284C358.697 131.284 360.098 136.7 360.098 139.594C360.098 142.487 362.057 142.771 362.057 142.771C362.057 142.771 364.204 145.309 363.072 147.157C361.94 149.005 361.483 153.604 361.483 153.604C361.483 153.604 361.854 162.38 360.174 163.594C358.494 164.807 358.143 167.705 358.143 167.705C358.143 167.705 355.057 173.213 355.154 174.522C355.25 175.832 350.859 184.7 350.859 184.7C350.859 184.7 353.007 173.68 340.494 168.918C340.494 168.918 340.398 165.177 341.332 164.152C342.266 163.127 343.723 162.66 342.809 157.477C341.895 152.294 342.545 146.101 342.545 144.858C342.545 143.614 345.347 135.858 345.347 135.858L355.174 138.391Z" fill="black"/>
<path d="M356.697 130.269L359.773 131.284C359.773 131.284 361.179 136.7 361.179 139.594C361.179 142.487 363.138 142.771 363.138 142.771C363.138 142.771 365.285 145.309 364.153 147.157C363.021 149.005 362.57 153.604 362.57 153.604C362.57 153.604 362.94 162.38 361.26 163.593C359.58 164.807 359.204 167.705 359.204 167.705C359.204 167.705 356.123 173.213 356.22 174.522C356.316 175.832 351.92 184.7 351.92 184.7C351.92 184.7 354.073 173.68 341.555 168.918C341.555 168.918 341.464 165.177 342.398 164.152C343.332 163.126 344.789 162.659 343.875 157.477C342.961 152.294 343.611 146.101 343.611 144.858C343.611 143.614 346.413 135.858 346.413 135.858L356.697 130.269Z" fill="white"/>
<path opacity="0.1" d="M326.855 304.938C326.855 304.938 331.195 304.379 334.84 308.303C338.484 312.227 326.855 304.938 326.855 304.938Z" fill="black"/>
<path opacity="0.1" d="M316.404 346.125C343.72 346.125 365.864 342.568 365.864 338.181C365.864 333.794 343.72 330.237 316.404 330.237C289.088 330.237 266.944 333.794 266.944 338.181C266.944 342.568 289.088 346.125 316.404 346.125Z" fill="#00BFA6"/>
<path d="M364.229 141.746C364.229 141.746 362.23 141.467 362.23 138.553C362.23 135.639 360.798 130.198 360.798 130.198C360.798 130.172 359.56 120.721 357.849 119.218C356.138 117.716 353.94 108.893 353.94 108.893C353.94 108.893 353.565 104.107 352.798 103.076C352.032 102.046 350.996 99.5229 349.469 95.9239C347.941 92.325 341.57 89.8326 341.57 89.8326C341.57 89.8326 330.053 83.1525 326.789 80.9748C326.493 80.7959 326.215 80.5866 325.962 80.3505C325.393 79.6043 322.916 79.589 322.916 79.589C322.657 77.9545 322.409 76.0764 322.327 74.3759C322.327 74.1931 322.327 74.0104 322.302 73.8277C325.941 71.6763 328.683 68.2843 330.023 64.2744C330.084 64.0815 330.134 63.8785 330.19 63.6856C330.408 63.6138 330.609 63.4972 330.779 63.3434C330.95 63.1895 331.086 63.0018 331.18 62.7922C331.474 62.1374 331.479 61.3709 331.845 60.7618C332.271 60.041 333.083 59.6552 333.723 59.112C335.337 57.7415 335.753 55.4318 335.677 53.3303C335.626 51.6298 335.352 49.9141 335.459 48.2238L335.489 47.7974C335.52 47.5436 335.555 47.2898 335.601 47.0461C335.85 45.7873 336.393 44.5994 336.697 43.3507C337.002 42.102 337.032 40.6959 336.322 39.6198C335.281 38.0411 333.114 37.7264 331.21 37.564C329.053 37.3812 327.124 37.6198 325.744 35.8279C325.097 34.8914 324.37 34.0133 323.571 33.2036C323.287 32.9396 320.525 31.2544 320.525 31.1427C317.83 29.8944 314.776 29.6601 311.922 30.4828C310.49 30.899 309.14 31.5792 307.688 31.9193C304.557 32.6604 300.953 31.8584 298.293 33.6503C296.811 34.6655 295.922 36.2797 295.09 37.8533C294.413 39.1494 293.726 40.4438 293.029 41.7365C291.907 43.8634 290.765 46.0258 290.293 48.3811C290.194 48.8937 290.133 49.4129 290.11 49.9344V49.9598C290.11 50.1476 290.11 50.3354 290.11 50.5233V50.7618C290.11 50.9395 290.11 51.1121 290.141 51.2694C290.171 51.4268 290.166 51.4776 290.181 51.5842C290.197 51.6908 290.222 51.9293 290.253 52.0918C290.283 52.2542 290.344 52.5385 290.405 52.7618C290.43 52.8583 290.466 52.9496 290.496 53.041C290.547 53.2136 290.608 53.3811 290.674 53.5486C290.709 53.6349 290.745 53.7263 290.785 53.8126C290.862 53.9902 290.953 54.1628 291.044 54.3202C291.085 54.3913 291.115 54.4572 291.156 54.5232C291.298 54.7593 291.454 54.9864 291.623 55.2034C292.709 56.5587 294.308 57.4217 295.491 58.6907C295.491 58.7415 295.491 58.7922 295.491 58.8379C295.491 58.98 295.491 59.1171 295.491 59.2592C295.554 62.0894 296.307 64.8614 297.685 67.3341C299.064 69.8068 301.025 71.9053 303.399 73.4469C303.399 73.6398 303.425 73.8378 303.435 74.0307C303.534 75.5375 303.515 77.0496 303.379 78.5535C303.172 78.3101 302.914 78.1161 302.622 77.9861C302.33 77.8561 302.013 77.7932 301.694 77.8022C301.476 77.7916 301.257 77.8104 301.044 77.8581L300.998 77.8225V77.8682C299.882 78.1423 298.506 79.3048 297.191 82.6093C297.191 82.6093 293.192 87.1169 290.146 86.9291C287.1 86.7413 279.39 91.6194 279.39 91.6194C279.39 91.6194 271.867 96.5026 270.253 101.477C269.351 104.298 268.269 107.058 267.015 109.741L257.716 128.903L256 144.106C256 144.106 256.949 150.868 256.761 151.898C256.574 152.929 260.665 162.223 260.665 162.223C260.665 162.223 274.182 185.974 279.705 187.192L280.101 186.913C280.337 187.037 280.588 187.13 280.847 187.192L281.984 186.39C282.052 187.284 282.023 188.183 281.898 189.07C281.136 191.416 282.182 206.72 283.512 209.72C284.842 212.72 284.37 252.055 284.37 252.055L284.182 255.527C284.182 255.527 284.182 255.638 284.227 255.831L284.182 256.654L284.319 256.725C284.461 257.826 284.415 258.944 284.182 260.029C283.705 261.552 283.512 265.857 283.512 265.857C283.512 265.857 279.71 290.161 281.512 295.044C283.314 299.928 284.847 305.278 284.847 305.278C284.847 305.278 286.75 311.369 284.938 312.41C283.126 313.45 277.974 315.196 279.035 317.734C279.999 320.08 283.659 326.364 284.202 327.283L284.156 327.765L283.41 335.851C283.531 336.919 283.821 337.961 284.268 338.937C285.085 340.699 286.674 342.526 289.694 342.328C290.202 342.293 290.791 342.232 291.359 342.156C296.887 341.415 303.694 338.948 303.694 338.948C303.34 338.723 303.016 338.455 302.729 338.151C302.458 337.887 302.242 337.572 302.097 337.223C301.951 336.874 301.878 336.498 301.882 336.12C301.963 334.648 299.207 327.633 298.521 325.907C298.415 325.658 298.359 325.516 298.359 325.516C298.359 325.516 304.643 318.948 303.597 313.125C303.597 313.125 296.643 309.065 298.932 306.836C301.222 304.608 305.313 298.207 305.313 298.207C305.313 298.207 305.501 274.273 305.313 270.699C305.117 268.219 305.235 265.724 305.663 263.273C305.739 262.902 305.831 262.542 305.927 262.187C309.093 262.659 312.289 262.902 315.49 262.913C316.658 262.913 317.845 262.913 319.043 262.841C319.043 263.18 319.059 263.545 319.089 263.938C319.353 269.867 319.845 280.263 320.246 284.126C320.815 289.664 323.957 304.587 323.957 304.587C323.957 304.587 317.962 308.435 325.002 317.917C325.002 317.917 325.003 321.354 324.536 321.851C324.037 323.477 323.635 325.132 323.332 326.806C323.038 328.592 322.916 330.399 323.393 331.338C324.536 333.582 331.388 333.399 331.388 333.399L331.556 333.369C332.849 333.235 334.157 333.36 335.402 333.735C336.647 334.111 337.805 334.73 338.809 335.557C341.413 337.648 351.296 336.729 356.646 336.064C358.742 335.8 360.143 335.557 360.143 335.557C360.211 335.319 360.235 335.072 360.214 334.826C360.159 333.511 359.128 330.628 352.144 328.054C352.144 328.054 345.575 323.638 345.667 319.79H345.53H344.768C345.322 319.76 345.677 319.79 345.677 319.79C345.677 319.79 343.103 310.4 344.154 309.638C345.205 308.877 342.058 298.471 342.058 298.471C342.058 298.471 340.256 281.009 340.159 279.786C340.163 278.736 340.322 277.692 340.631 276.689L340.159 267.116C340.159 267.116 340.068 263.933 340.159 262.897C340.144 261.998 340.071 261.102 339.941 260.212C339.895 259.857 339.85 259.486 339.799 259.121C342.261 258.496 343.86 257.918 343.86 257.918L343.575 224.593C345.667 220.532 346.052 211.624 346.042 205.304C346.042 201.243 345.86 198.238 345.86 198.238L348.717 193.573C348.717 193.573 349.377 187.989 348.332 186.766C347.87 186.213 348.078 185.639 348.458 185.167C348.656 185.01 348.865 184.868 349.083 184.741C349.083 184.741 349.052 184.695 349.017 184.629C349.216 184.462 349.428 184.311 349.651 184.177C349.651 184.177 348.636 182.603 349.545 181.939C350.397 182.517 351.159 182.954 351.738 183.309C351.697 183.68 351.656 183.893 351.656 183.893L351.9 183.385C352.458 183.7 352.798 183.893 352.798 183.893C352.798 183.893 357.275 174.974 357.179 173.659C357.083 172.345 360.225 166.807 360.225 166.807C360.225 166.807 360.605 163.898 362.321 162.68C364.037 161.462 363.651 152.634 363.651 152.634C363.651 152.634 364.128 148.035 365.27 146.157C366.412 144.279 364.229 141.746 364.229 141.746ZM278.568 137.832L278.654 139.959C278.146 139.142 277.781 138.553 277.781 138.553L278.568 137.832Z" fill="url(#paint1_linear)"/>
<path d="M303.76 338.978C303.76 338.978 295.638 341.963 290.055 342.338C287.09 342.536 285.532 340.719 284.73 338.968C284.292 337.994 284.009 336.958 283.892 335.897L284.618 327.851L285.004 323.567L296.866 320.486L298.547 325.623L298.704 326.014C299.379 327.729 302.085 334.709 302.003 336.166C302 336.539 302.072 336.909 302.215 337.253C302.358 337.598 302.569 337.91 302.836 338.171C303.108 338.478 303.419 338.749 303.76 338.978Z" fill="white"/>
<path opacity="0.1" d="M303.76 338.978C303.76 338.978 295.638 341.963 290.055 342.338C287.09 342.536 285.532 340.719 284.735 338.963C286.801 339.658 289.669 340.389 291.176 339.719C292.963 338.927 299.298 338.415 302.851 338.196C303.122 338.492 303.427 338.755 303.76 338.978Z" fill="black"/>
<path d="M315.81 98.4468C309.11 95.8427 300.491 87.2387 302.643 83.2184C303.121 82.2039 303.405 81.109 303.48 79.9901C303.619 78.4711 303.639 76.9437 303.541 75.4216C303.39 72.9287 303.09 70.4471 302.643 67.9901C302.643 67.9901 323.561 68.4622 322.343 71.5434C321.987 72.447 321.932 74.0155 322.028 75.7718C322.124 77.5281 322.378 79.5129 322.642 81.1931C323.008 83.4976 323.373 85.254 323.373 85.254C323.373 85.254 322.094 87.0458 321.343 87.1423C320.591 87.2387 325.424 102.157 315.81 98.4468Z" fill="#CF6F80"/>
<path opacity="0.1" d="M298.689 326.014L298.531 326.186C292.278 318.623 284.715 328.049 284.715 328.049L284.603 327.851L284.989 323.567L296.851 320.486L298.531 325.623L298.689 326.014Z" fill="black"/>
<path d="M306.47 261.09C306.13 261.931 305.872 262.803 305.699 263.694C305.275 266.134 305.158 268.616 305.348 271.085C305.536 274.638 305.348 298.45 305.348 298.45C305.348 298.45 301.333 304.801 299.095 307.039C296.856 309.278 303.663 313.298 303.663 313.298C304.678 319.085 298.526 325.623 298.526 325.623C292.273 318.059 284.71 327.491 284.71 327.491C284.71 327.491 280.598 320.384 279.573 317.846C278.547 315.308 283.588 313.552 285.359 312.521C287.131 311.491 285.273 305.415 285.273 305.415C285.273 305.415 283.776 300.09 281.999 295.232C280.223 290.374 283.958 266.192 283.958 266.192C283.958 266.192 284.151 261.897 284.613 260.4C284.846 259.319 284.893 258.207 284.75 257.111C284.72 256.74 284.684 256.43 284.659 256.222C284.634 256.014 284.613 255.918 284.613 255.918L284.684 255.796L287.222 251.065C287.222 251.065 307.688 258.111 306.47 261.09Z" fill="#00BFA6"/>
<path d="M344.946 319.927C344.946 319.927 340.378 319.831 337.941 321.958C335.505 324.085 323.728 322.425 324.236 321.958C324.744 321.491 324.703 318.034 324.703 318.034C317.795 308.603 323.688 304.775 323.688 304.775C323.688 304.775 320.602 289.928 320.043 284.42C319.652 280.572 319.17 270.232 318.911 264.329C318.8 261.791 318.734 260.045 318.734 260.045L324.378 258.908L325.104 258.76L338.718 256.029C338.718 256.029 339.093 258.567 339.347 260.644C339.474 261.53 339.545 262.423 339.56 263.319C339.469 264.334 339.56 267.512 339.56 267.512L340.022 277.039C339.72 278.039 339.565 279.077 339.56 280.121C339.652 281.334 341.423 298.704 341.423 298.704C341.423 298.704 344.504 309.07 343.454 309.816C342.403 310.562 344.946 319.927 344.946 319.927Z" fill="#00BFA6"/>
<path opacity="0.1" d="M322.343 71.5434C321.987 72.447 321.932 74.0155 322.028 75.7718C319.226 77.4591 316.005 78.3218 312.735 78.2607C309.465 78.1997 306.278 77.2173 303.541 75.4266C303.391 72.9321 303.091 70.4488 302.643 67.9901C302.643 67.9901 323.561 68.4521 322.343 71.5434Z" fill="black"/>
<path d="M330.429 60.3252C330.433 62.1544 330.145 63.9725 329.576 65.7109C328.304 69.6062 325.696 72.9264 322.214 75.0848C318.731 77.2433 314.597 78.1009 310.543 77.5062C306.489 76.9115 302.775 74.9027 300.059 71.8349C297.343 68.7671 295.799 64.8378 295.699 60.7414C295.699 60.5993 295.699 60.4673 295.699 60.3252C295.66 58.0194 296.08 55.7289 296.935 53.5872C297.79 51.4455 299.063 49.4955 300.68 47.8509C302.296 46.2064 304.224 44.9002 306.351 44.0086C308.477 43.117 310.76 42.6578 313.066 42.6578C315.372 42.6578 317.655 43.117 319.782 44.0086C321.909 44.9002 323.837 46.2064 325.453 47.8509C327.07 49.4955 328.343 51.4455 329.198 53.5872C330.053 55.7289 330.473 58.0194 330.434 60.3252H330.429Z" fill="#CF6F80"/>
<path opacity="0.1" d="M315.81 98.4468C309.11 95.8427 300.491 87.2387 302.643 83.2185C303.121 82.2039 303.405 81.109 303.48 79.9901L312.653 87.5281L318.328 92.1829L322.642 81.1982C323.008 83.5027 323.373 85.259 323.373 85.259C323.373 85.259 322.094 87.0509 321.343 87.1474C320.591 87.2438 325.424 102.157 315.81 98.4468Z" fill="black"/>
<path d="M339.53 131.761L331.87 260.441L321.881 261.095L296.014 186.482L300.257 97.8986L301.151 79.183L312.653 88.6296L318.333 93.2844L322.774 81.9799L331.033 89.1778L339.53 131.761Z" fill="#00BFA6"/>
<path opacity="0.1" d="M306.47 261.09C306.13 261.931 305.872 262.803 305.699 263.694C298.43 262.572 291.37 260.366 284.755 257.151L284.618 257.08L284.664 256.263L284.689 255.836L287.227 251.106C287.227 251.106 307.688 258.111 306.47 261.09Z" fill="black"/>
<path opacity="0.1" d="M324.495 263.715C322.637 264.031 320.763 264.244 318.881 264.354C318.769 261.816 318.703 260.07 318.703 260.07L324.348 258.933L324.495 263.715Z" fill="black"/>
<path opacity="0.1" d="M325.053 262.593C304.242 266.146 285.182 255.958 285.182 255.958L285.364 252.507C285.364 252.507 285.836 213.375 284.527 210.375C283.217 207.375 282.197 192.162 282.938 189.827C283.679 187.492 280.233 152.477 280.233 152.477L279.674 138.264L259.238 129.985L268.375 110.939C269.609 108.269 270.671 105.522 271.553 102.716C273.142 97.7716 280.517 92.9138 280.517 92.9138C280.517 92.9138 288.08 88.061 291.07 88.2438C294.06 88.4265 297.978 83.9494 297.978 83.9494C300.871 76.5738 303.491 79.9139 303.491 79.9139C303.491 80.2641 303.491 79.9139 303.349 81.0053C302.333 89.1016 319.764 114.685 320.013 115.137L321.673 155.573L323.353 206.745L325.053 262.593Z" fill="black"/>
<path d="M324.495 262.593C303.684 266.146 284.618 255.958 284.618 255.958L284.806 252.507C284.806 252.507 285.278 213.375 283.963 210.375C282.649 207.375 281.634 192.162 282.38 189.827C283.126 187.492 279.674 152.477 279.674 152.477L279.111 138.264L258.665 129.954L267.802 110.909C269.033 108.237 270.094 105.491 270.979 102.685C272.563 97.7412 279.943 92.8833 279.943 92.8833C279.943 92.8833 287.506 88.0306 290.491 88.2133C293.476 88.3961 297.399 83.9189 297.399 83.9189C300.298 76.5434 303.491 79.8834 303.491 79.8834C303.491 80.2337 303.186 80.391 303.349 80.9748C305.582 88.8275 319.206 114.655 319.455 115.107L321.135 155.543L322.815 206.715L324.495 262.593Z" fill="white"/>
<path opacity="0.1" d="M318.886 116.259C316.648 115.325 304.79 101.787 304.79 101.787V98.7057C304.359 97.6904 301.795 98.3097 299.714 99.0204L300.607 80.3048L301.623 81.1474C303.846 88.9951 318.627 115.807 318.886 116.259Z" fill="black"/>
<path d="M319.449 115.137C317.206 114.203 305.348 100.665 305.348 100.665V97.5838C304.917 96.5686 302.354 97.1879 300.272 97.8985L301.171 79.1829L302.186 80.0256C304.414 87.8732 319.201 114.69 319.449 115.137Z" fill="white"/>
<path opacity="0.1" d="M285.182 182.654C285.461 182.654 299.653 181.162 299.653 181.162C299.653 181.162 308.247 198.06 307.683 202.172C307.12 206.284 306.1 209.923 302.643 209.278C299.186 208.634 284.04 209.786 284.04 209.786L285.182 182.654Z" fill="black"/>
<path d="M284.618 181.532C284.897 181.532 299.09 180.04 299.09 180.04C299.09 180.04 307.678 196.944 307.12 201.05C306.562 205.157 305.531 208.801 302.08 208.157C298.628 207.512 283.476 208.664 283.476 208.664L284.618 181.532Z" fill="white"/>
<path d="M295.313 173.598C295.313 173.598 308.338 180.598 308.617 182.735C308.896 184.872 301.988 181.801 300.496 181.431C299.514 181.194 298.514 181.038 297.506 180.964L287.552 181.233L295.313 173.598Z" fill="#CF6F80"/>
<path opacity="0.1" d="M315.252 117.132C316.009 117.132 316.622 116.518 316.622 115.761C316.622 115.004 316.009 114.391 315.252 114.391C314.495 114.391 313.881 115.004 313.881 115.761C313.881 116.518 314.495 117.132 315.252 117.132Z" fill="black"/>
<path d="M315.252 116.574C316.009 116.574 316.622 115.96 316.622 115.203C316.622 114.446 316.009 113.832 315.252 113.832C314.495 113.832 313.881 114.446 313.881 115.203C313.881 115.96 314.495 116.574 315.252 116.574Z" fill="#3F3D56"/>
<path opacity="0.1" d="M317.774 176.461C318.531 176.461 319.145 175.848 319.145 175.091C319.145 174.334 318.531 173.72 317.774 173.72C317.017 173.72 316.404 174.334 316.404 175.091C316.404 175.848 317.017 176.461 317.774 176.461Z" fill="black"/>
<path d="M317.774 175.898C318.531 175.898 319.145 175.284 319.145 174.527C319.145 173.77 318.531 173.157 317.774 173.157C317.017 173.157 316.404 173.77 316.404 174.527C316.404 175.284 317.017 175.898 317.774 175.898Z" fill="#3F3D56"/>
<path opacity="0.1" d="M316.617 146.797C317.374 146.797 317.988 146.183 317.988 145.426C317.988 144.669 317.374 144.056 316.617 144.056C315.86 144.056 315.247 144.669 315.247 145.426C315.247 146.183 315.86 146.797 316.617 146.797Z" fill="black"/>
<path d="M316.617 146.238C317.374 146.238 317.988 145.625 317.988 144.868C317.988 144.111 317.374 143.497 316.617 143.497C315.86 143.497 315.247 144.111 315.247 144.868C315.247 145.625 315.86 146.238 316.617 146.238Z" fill="#3F3D56"/>
<path opacity="0.1" d="M330.429 60.3252C330.433 62.1544 330.145 63.9725 329.576 65.711C329.48 65.7259 329.382 65.7215 329.288 65.698C329.194 65.6744 329.105 65.6322 329.028 65.5739C328.896 61.0054 326.647 56.7161 323.881 53.0664C323.104 51.9644 322.162 50.9885 321.089 50.173C320.004 49.3578 318.654 48.976 317.302 49.1019C315.78 49.31 314.434 50.3456 312.896 50.4776C310.866 50.6451 309.049 49.239 307.034 49.1679C306.214 49.1757 305.406 49.3581 304.663 49.703C303.92 50.0479 303.259 50.5473 302.724 51.1679C301.666 52.4203 300.879 53.8793 300.415 55.4521C299.617 57.8371 299.182 60.3286 299.125 62.8429C299.1 64.2643 298.963 66.046 297.643 66.5637C297.743 65.5185 297.624 64.4639 297.294 63.4669C296.965 62.47 296.432 61.5522 295.73 60.7719L295.699 60.7414C295.699 60.5993 295.699 60.4673 295.699 60.3252C295.66 58.0194 296.08 55.7289 296.935 53.5872C297.79 51.4455 299.063 49.4955 300.68 47.8509C302.296 46.2064 304.224 44.9002 306.351 44.0086C308.477 43.117 310.76 42.6578 313.066 42.6578C315.372 42.6578 317.655 43.117 319.782 44.0086C321.909 44.9002 323.837 46.2064 325.453 47.8509C327.07 49.4955 328.343 51.4455 329.198 53.5872C330.053 55.7289 330.473 58.0194 330.434 60.3252H330.429Z" fill="black"/>
<path d="M320.257 32.7467C317.619 31.5059 314.619 31.2713 311.82 32.0868C310.414 32.5031 309.089 33.1782 307.663 33.5183C304.618 34.2543 301.064 33.4574 298.45 35.2391C296.999 36.2543 296.125 37.8584 295.313 39.4167L293.283 43.2847C292.176 45.4015 291.06 47.5537 290.598 49.8836C290.136 52.2136 290.415 54.8227 291.892 56.6958C292.968 58.0613 294.557 58.9191 295.724 60.2034C296.424 60.9845 296.954 61.9017 297.283 62.8975C297.611 63.8933 297.73 64.9461 297.633 65.9901C298.958 65.4825 299.085 63.6957 299.115 62.2744C299.172 59.7601 299.606 57.2686 300.404 54.8836C300.868 53.3103 301.654 51.8511 302.714 50.5994C303.249 49.9793 303.91 49.4802 304.653 49.1354C305.396 48.7905 306.204 48.6078 307.024 48.5994C309.054 48.6705 310.876 50.0715 312.886 49.904C314.409 49.7771 315.759 48.7365 317.292 48.5334C318.644 48.4055 319.994 48.7875 321.079 49.6045C322.152 50.4188 323.092 51.3949 323.866 52.4979C326.637 56.1476 328.886 60.4267 329.018 65.0054C329.591 65.4267 330.419 64.8785 330.703 64.2287C330.987 63.579 330.997 62.8176 331.358 62.1983C331.774 61.4826 332.571 61.1018 333.195 60.5638C334.779 59.1983 335.175 56.8988 335.114 54.8126C335.053 52.7263 334.647 50.6095 335.043 48.5588C335.281 47.2999 335.819 46.1223 336.114 44.8786C336.408 43.635 336.444 42.239 335.748 41.168C334.733 39.5944 332.596 39.2847 330.733 39.1375C328.617 38.9548 326.723 39.1883 325.373 37.4066C324.739 36.4768 324.026 35.6038 323.241 34.7975C322.972 34.5335 320.257 32.8584 320.257 32.7467Z" fill="#512E4E"/>
<path opacity="0.1" d="M265.086 139.792L259.782 129.985L258.101 145.116C258.101 145.116 259.035 151.837 258.848 152.868C258.66 153.898 262.675 163.137 262.675 163.137C262.675 163.137 275.938 186.761 281.354 187.979L299.653 174.903L294.801 168.741C294.801 168.741 293.12 168.086 292.699 168.741C292.699 168.741 283.689 153.238 282.755 152.116C281.821 150.995 282.004 148.756 282.004 148.756C282.004 148.756 280.603 147.264 281.07 145.863C281.537 144.462 278.365 139.604 278.365 139.604L281.258 136.898L265.086 139.792Z" fill="black"/>
<path d="M260.061 128.868L258.66 129.985L256.98 145.116C256.98 145.116 257.914 151.837 257.726 152.868C257.538 153.898 261.558 163.137 261.558 163.137C261.558 163.137 274.817 186.761 280.233 187.979L298.537 174.903L293.679 168.741C293.679 168.741 291.999 168.086 291.577 168.741C291.577 168.741 282.568 153.238 281.634 152.116C280.7 150.995 280.887 148.756 280.887 148.756C280.887 148.756 279.486 147.264 279.953 145.863C280.42 144.462 277.243 139.604 277.243 139.604L280.136 136.898L260.061 128.868Z" fill="white"/>
<path opacity="0.1" d="M288.755 314.465C288.755 314.465 293.659 311.384 296.877 313.623C300.095 315.861 288.755 314.465 288.755 314.465Z" fill="black"/>
<g opacity="0.1">
<path opacity="0.1" d="M333.205 59.4521C332.581 59.9902 331.779 60.3759 331.363 61.0917C331.007 61.7059 330.997 62.4622 330.713 63.1221C330.429 63.782 329.601 64.3201 329.028 63.9038C328.896 59.3354 326.642 55.046 323.876 51.3912C323.102 50.2883 322.162 49.3122 321.089 48.4979C320.003 47.681 318.65 47.2991 317.297 47.4268C315.774 47.6349 314.434 48.6704 312.896 48.7973C310.866 48.9699 309.044 47.5638 307.029 47.4928C306.21 47.5009 305.402 47.6841 304.66 48.0299C303.917 48.3757 303.257 48.8762 302.724 49.4978C301.665 50.7477 300.878 52.2052 300.415 53.777C299.617 56.1621 299.182 58.6535 299.125 61.1678C299.095 62.5841 298.963 64.3505 297.653 64.8785C297.684 65.2535 297.684 65.6303 297.653 66.0053C298.973 65.4977 299.105 63.7109 299.135 62.2896C299.192 59.7753 299.627 57.2838 300.425 54.8988C300.888 53.3256 301.675 51.8663 302.734 50.6146C303.269 49.9946 303.929 49.4956 304.671 49.1507C305.413 48.8059 306.22 48.6231 307.039 48.6146C309.069 48.6857 310.896 50.0867 312.907 49.9192C314.429 49.7923 315.78 48.7517 317.307 48.5486C318.661 48.4209 320.013 48.8029 321.099 49.6197C322.172 50.434 323.112 51.4101 323.886 52.5131C326.652 56.1628 328.906 60.4419 329.038 65.0206C329.611 65.4419 330.439 64.8937 330.723 64.2439C331.007 63.5942 331.017 62.8328 331.373 62.2135C331.789 61.4978 332.591 61.1171 333.215 60.579C334.799 59.2135 335.195 56.914 335.134 54.8278C335.134 54.7618 335.134 54.6958 335.134 54.6349C335.038 56.442 334.555 58.2846 333.205 59.4521Z" fill="black"/>
<path opacity="0.1" d="M295.735 59.0917C294.567 57.8074 292.973 56.9496 291.902 55.5892C291 54.3849 290.485 52.9352 290.425 51.4319C290.265 53.3105 290.79 55.1836 291.902 56.7059C292.973 58.0714 294.567 58.9293 295.735 60.2135C296.855 61.4697 297.528 63.062 297.648 64.7414C297.726 63.7194 297.596 62.6922 297.268 61.7214C296.939 60.7505 296.417 59.8561 295.735 59.0917Z" fill="black"/>
<path opacity="0.1" d="M336.124 43.7669C335.824 45.0106 335.291 46.1933 335.048 47.4471C334.904 48.2849 334.851 49.136 334.89 49.9852C334.907 49.5014 334.96 49.0196 335.048 48.5436C335.291 47.2847 335.824 46.107 336.124 44.8634C336.298 44.1774 336.355 43.4668 336.291 42.7619C336.26 43.1005 336.204 43.4364 336.124 43.7669Z" fill="black"/>
</g>
</g>
<defs>
<linearGradient id="paint0_linear" x1="175.635" y1="257.563" x2="175.635" y2="149.309" gradientUnits="userSpaceOnUse">
<stop stop-color="#808080" stop-opacity="0.25"/>
<stop offset="0.54" stop-color="#808080" stop-opacity="0.12"/>
<stop offset="1" stop-color="#808080" stop-opacity="0.1"/>
</linearGradient>
<linearGradient id="paint1_linear" x1="310.795" y1="342.354" x2="310.795" y2="30.0006" gradientUnits="userSpaceOnUse">
<stop stop-color="#808080" stop-opacity="0.25"/>
<stop offset="0.54" stop-color="#808080" stop-opacity="0.12"/>
<stop offset="1" stop-color="#808080" stop-opacity="0.1"/>
</linearGradient>
<clipPath id="clip0">
<rect width="443" height="350" fill="white"/>
</clipPath>
</defs>
</svg>
