<svg width="270" height="202" viewBox="0 0 270 202" fill="none" xmlns="http://www.w3.org/2000/svg">
<path d="M131.149 194.809L10.1371 123.287C6.28562 121.126 2.97955 117.571 6.73675 115.248L128.186 45.221C130.011 44.0898 132.778 43.3492 134.63 44.4265L261.661 118.183C265.512 120.419 266.206 126.667 262.334 128.91L147.12 194.694C144.698 196.102 141.951 196.853 139.149 196.873C136.348 196.893 133.59 196.181 131.149 194.809V194.809Z" fill="#16A79E"/>
<path style="mix-blend-mode:multiply" d="M43.999 118.433L22.3042 129.475C22.3042 129.475 117.446 186.661 124.173 189.489L142.03 178.622" fill="url(#paint0_linear)"/>
<path d="M34.9225 111.767L35.01 118.527L234.855 124.392L234.849 116.009" fill="#077587"/>
<path d="M132.037 177.672L38.8952 122.627C35.9325 120.964 33.3873 118.231 36.2759 116.44L129.755 62.5729C131.155 61.7043 133.29 61.1319 134.711 61.9601L232.478 118.702C235.448 120.426 235.973 125.233 233.01 126.957L144.312 177.592C142.45 178.671 140.338 179.246 138.186 179.26C136.033 179.274 133.914 178.727 132.037 177.672V177.672Z" fill="#077587"/>
<path d="M132.037 170.677L38.8952 115.632C35.9325 113.968 33.3873 111.235 36.2759 109.444L129.755 55.5769C131.155 54.7083 133.29 54.136 134.711 54.9642L232.478 111.706C235.448 113.43 235.973 118.237 233.01 119.961L144.312 170.596C142.45 171.675 140.338 172.25 138.186 172.264C136.033 172.278 133.914 171.731 132.037 170.677V170.677Z" fill="#30D5C8"/>
<path opacity="0.79" d="M95.1522 139.239C95.1522 139.239 97.4752 144.915 108.397 141.454C119.318 137.993 173.131 102.293 176.073 97.7613C179.016 93.2297 185.971 86.0385 181.42 84.7053C176.868 83.3721 149.955 96.9061 147.571 99.0877C145.188 101.269 105.084 126.896 95.1522 139.239Z" fill="#1F90A3"/>
<path d="M133.788 91.304C131.216 91.9033 128.401 93.8088 125.708 96.1048C122.153 99.1752 118.396 102.407 116.618 104.023C114.84 105.639 108.06 111.43 105.798 114.521C103.535 117.611 98.5323 127.603 97.8859 128.735C97.2395 129.866 95.1387 131.643 95.1387 133.744C95.1387 135.845 93.8459 138.592 95.1387 139.239C96.4315 139.885 97.8859 141.339 98.3707 139.239C98.8555 137.138 99.8251 132.128 100.148 132.775C100.471 133.421 99.0171 136.33 99.9867 136.141C100.956 135.953 102.411 133.071 102.572 131.293C102.734 129.516 104.188 125.799 104.188 125.799L114.201 113.847L120.503 120.15C120.503 120.15 117.668 123.866 116.908 124.351C116.147 124.836 110.174 131.462 108.713 132.431C106.977 133.578 105.305 134.819 103.703 136.148C102.411 137.279 100.795 138.336 100.471 140.309C100.148 142.282 100.795 142.928 101.764 143.09C102.734 143.252 105.131 141.959 105.643 141.312C106.154 140.666 109.198 138.242 110.491 136.464C111.783 134.687 113.561 133.556 115.339 132.424C117.116 131.293 122.604 127.092 124.543 124.513C126.482 121.934 134.232 112.238 136.333 110.137C138.434 108.036 140.535 106.582 142.312 104.32C142.844 103.646 143.928 102.502 145.167 101.249C142.407 97.0408 138.165 93.8829 133.788 91.304Z" fill="#F3A984"/>
<path d="M120.981 110.743L120.308 120.439C120.308 120.439 117.507 123.853 117.971 123.314C118.019 123.254 119.729 122.951 121.978 120.5C122.604 119.858 123.143 119.135 123.58 118.352C123.986 117.499 124.187 116.562 124.166 115.618C124.227 113.881 122.88 110.905 120.981 110.743Z" fill="#E0855C"/>
<path d="M121.681 119.429C121.569 119.092 121.427 118.765 121.257 118.453C121.137 118.25 120.941 118.103 120.713 118.044C120.485 117.985 120.242 118.018 120.039 118.136C119.839 118.259 119.694 118.455 119.635 118.682C119.576 118.909 119.607 119.15 119.722 119.355L119.823 119.55C119.839 119.602 119.862 119.652 119.89 119.698V119.698L119.964 119.907C120.027 120.135 120.177 120.328 120.383 120.445C120.484 120.503 120.596 120.54 120.712 120.555C120.828 120.569 120.946 120.561 121.059 120.53C121.171 120.499 121.277 120.446 121.369 120.374C121.462 120.303 121.539 120.214 121.597 120.112C121.655 120.01 121.692 119.898 121.706 119.782C121.721 119.666 121.712 119.549 121.681 119.436V119.429Z" fill="#E0855C"/>
<path d="M119.473 110.151C119.473 110.151 122.207 113.861 120.705 118.156C119.204 122.452 114.443 119.133 111.992 116.547" fill="#F3A984"/>
<path d="M115.797 116.534C115.797 116.534 116.214 114.857 116.948 114.372C117.682 113.888 117.985 113.699 117.985 113.699L118.658 111.315L119.493 110.137L118.476 113.834C118.476 113.834 118.928 115.456 118.12 116.217C117.312 116.978 115.797 116.534 115.797 116.534Z" fill="#2E383A"/>
<path d="M113.103 117.631C113.103 117.631 113.83 118.258 114.288 118.237C114.553 118.256 114.817 118.204 115.054 118.085C115.291 117.967 115.492 117.787 115.635 117.564C115.773 117.236 115.841 116.883 115.837 116.527C115.601 116.412 115.342 116.352 115.079 116.352C114.817 116.352 114.558 116.412 114.322 116.527C113.85 116.816 113.437 117.19 113.103 117.631Z" fill="#2E383A"/>
<path d="M111.999 116.547C111.999 116.547 116.039 116.419 119.48 110.151C119.48 110.151 116.153 105.316 111.817 108.05C107.481 110.784 110.8 116.036 111.999 116.547Z" fill="#2E383A"/>
<path d="M142.898 80.0862C142.898 80.0862 150.042 74.4235 150.716 73.3529C151.389 72.2823 155.57 65.4008 157.59 63.5088C159.61 61.6167 164.869 57.846 165.542 57.038C166.216 56.23 166.754 54.6141 167.293 53.3953C167.832 52.1766 169.852 51.3753 170.936 50.4259C172.02 49.4765 174.175 48.8099 175.649 48.5406C177.124 48.2712 178.073 48.8099 177.535 49.6179C176.996 50.4259 174.976 52.5873 174.296 53.3953C173.616 54.2033 170.788 57.4353 170.788 57.4353C170.788 57.4353 165.664 61.7514 164.99 62.694C164.317 63.6367 161.906 68.4914 160.277 69.9728C158.647 71.4541 149.079 83.5943 149.079 83.5943C149.079 83.5943 153.119 81.305 154.338 79.4129C155.557 77.5208 159.253 74.1474 160.277 71.4608C161.3 68.7742 162.97 67.6834 166.068 64.3168C169.165 60.9501 170.512 59.7246 170.956 59.058C171.4 58.3914 172.976 56.1021 173.198 55.2537C173.42 54.4053 175.104 53.3482 175.831 52.5604C176.558 51.7726 176.955 50.9915 177.683 50.6549C178.422 50.3352 179.233 50.2189 180.033 50.3182C180.42 50.3701 180.773 50.5658 181.023 50.8665C181.272 51.1672 181.4 51.5507 181.379 51.9409C181.265 52.9509 178.969 54.4592 178.746 54.7958C178.524 55.1325 177.568 57.6508 176.787 58.7685C176.006 59.8862 174.208 62.014 174.208 62.014C174.208 62.014 169.34 70.3633 167.96 72.0466C166.747 73.4097 165.622 74.8491 164.593 76.356C163.92 77.4737 158.769 87.8026 156.755 90.5768L142.898 80.0862Z" fill="#F3A984"/>
<path d="M132.414 91.4589C132.414 91.4589 134.609 82.2409 142.905 80.0863C142.905 80.0863 147.888 80.8135 148.655 84.436C148.655 84.436 155.389 84.5505 156.735 90.5701C153.14 94.5356 149.209 98.1829 144.986 101.471L132.414 91.4589Z" fill="#2E383A"/>
<path opacity="0.34" d="M225.153 67.8989C221.988 66.4243 218.857 64.6669 216.399 62.1688C214.884 60.6471 213.766 58.8022 212.15 57.3613C210.394 55.8953 208.417 54.7159 206.293 53.8666C202.71 52.3112 198.953 51.1733 195.6 49.1533C191.816 46.8438 188.644 43.5647 185.217 40.7771C181.983 38.1039 178.543 35.6904 174.929 33.5589C171.205 31.3975 166.977 30.0643 163.388 27.7144C157.018 23.5397 153.618 16.7054 145.8 14.9211C141.76 13.9986 137.72 12.5509 133.613 12.1873C129.142 11.7968 126.287 14.645 123.358 17.574C120.434 20.5964 116.902 22.9647 112.995 24.5228C108.282 26.3744 104.081 27.9635 99.9463 31.0474C96.9499 33.2896 94.0479 35.6866 90.8024 37.572C87.2068 39.666 83.3957 40.7299 79.4904 42.09C71.8077 44.7834 67.7071 52.3382 61.6605 57.267C54.2539 63.327 44.3828 61.6504 36.5317 66.5253C36.2907 66.6884 36.0174 66.7975 35.7303 66.8451C35.4433 66.8928 35.1493 66.8779 34.8686 66.8014V111.773H34.9157C35.212 113.16 36.9357 114.622 38.7605 115.658L131.903 170.703C133.78 171.757 135.899 172.303 138.052 172.288C140.204 172.272 142.316 171.696 144.178 170.616L232.876 119.981C233.542 119.57 234.079 118.981 234.427 118.28C234.774 117.579 234.918 116.794 234.842 116.015V72.2082C231.677 70.5384 228.162 69.2994 225.153 67.8989Z" fill="#30D5C8"/>
<path opacity="0.18" d="M138.616 172.259L138.979 123.375L234.849 72.2015V118.231L144.184 170.609C142.546 171.726 140.599 172.303 138.616 172.259V172.259Z" fill="#077587"/>
<path opacity="0.15" d="M138.979 123.375L34.8754 66.761V110.353C34.8728 111.457 35.1608 112.543 35.7103 113.502C36.2598 114.46 37.0516 115.257 38.0064 115.813L132.886 171.148C134.609 171.949 137.411 172.629 138.616 172.279L138.979 123.375Z" fill="white"/>
<defs>
<linearGradient id="paint0_linear" x1="120.167" y1="123.112" x2="66.5018" y2="166.798" gradientUnits="userSpaceOnUse">
<stop stop-color="#D4A397"/>
<stop offset="1" stop-color="white"/>
</linearGradient>
</defs>
</svg>
